<?xml version="1.0" encoding="utf-8"?>
<!-- Generator: Adobe Illustrator 16.0.0, SVG Export Plug-In . SVG Version: 6.00 Build 0)  -->
<!DOCTYPE svg PUBLIC "-//W3C//DTD SVG 1.1//EN" "http://www.w3.org/Graphics/SVG/1.1/DTD/svg11.dtd">
<svg version="1.1" id="Layer_1" xmlns="http://www.w3.org/2000/svg" xmlns:xlink="http://www.w3.org/1999/xlink" x="0px" y="0px"
	 width="75px" height="60px" viewBox="0 0 75 60" enable-background="new 0 0 75 60" xml:space="preserve">
<g>
	<path fill-rule="evenodd" clip-rule="evenodd" d="M2.269,30.579c10.023,1.281,19.755,2.525,29.766,3.804
		c-0.152-0.184,0.024-0.069,0.02,0.038c-0.178,4.704,1.894,5.805,5.953,5.498c0.589-0.045,1.183-0.006,1.774-0.007
		c3.87-0.01,4.86-0.92,5.137-4.716c0.021-0.292,0.077-0.582,0.094-0.702c9.932-1.298,19.786-2.585,29.744-3.887
		c0,7.721,0.055,15.775-0.033,23.827c-0.026,2.44-1.959,4.237-4.394,4.503c-0.659,0.071-1.329,0.06-1.993,0.06
		c-19.818,0.003-39.635,0.006-59.453,0.001c-5.08-0.001-6.611-1.538-6.615-6.606c-0.004-6.507-0.001-13.014-0.001-19.521
		C2.269,32.067,2.269,31.266,2.269,30.579z"/>
	<path fill-rule="evenodd" clip-rule="evenodd" d="M50.768,9.143c-1.044,0-2.118,0-3.193-0.001
		c-0.094-0.111-0.267-0.223-0.266-0.333c0.021-4.388-0.956-3.895-4.544-3.947c-2.805-0.041-5.609-0.009-8.414-0.008
		c-4.213,0.002-4.213,0.002-4.619,4.254c-1.112,0-2.251,0-3.404,0c-1.296-4.662,0.961-7.917,5.76-8.036
		c4.205-0.104,8.414-0.086,12.62-0.005C49.635,1.161,51.749,3.976,50.768,9.143z"/>
	<path fill-rule="evenodd" clip-rule="evenodd" d="M74.768,15.621c-0.016-3.769-1.801-5.637-5.563-5.642
		C48.719,9.953,28.232,9.954,7.746,9.977c-3.588,0.004-5.429,1.893-5.467,5.504c-0.041,3.919,0.084,7.843-0.053,11.757l0.042,2.007
		c9.842,1.257,19.926,2.547,29.766,3.804c-0.123-0.147-0.032-0.101,0.005-0.021c0.4-4.102,1.43-4.95,5.453-4.961
		c1.035-0.003,2.072-0.027,3.106,0.008c2.719,0.092,3.905,1.152,4.294,3.786c0.053,0.355,0.119,0.711,0.224,1.287
		c9.896-1.294,19.718-2.577,29.64-3.875C74.757,29.502,74.786,20.196,74.768,15.621z"/>
</g>
</svg>
