<?xml version="1.0" encoding="utf-8"?>
<!-- Generator: Adobe Illustrator 16.0.0, SVG Export Plug-In . SVG Version: 6.00 Build 0)  -->
<!DOCTYPE svg PUBLIC "-//W3C//DTD SVG 1.1//EN" "http://www.w3.org/Graphics/SVG/1.1/DTD/svg11.dtd">
<svg version="1.1" id="Layer_1" xmlns="http://www.w3.org/2000/svg" xmlns:xlink="http://www.w3.org/1999/xlink" x="0px" y="0px"
	 width="97px" height="88px" viewBox="0 0 97 88" enable-background="new 0 0 97 88" xml:space="preserve">
<g>
	<path fill-rule="evenodd" clip-rule="evenodd" d="M0.217,46.249c0.554-1.047,1.522-1.316,2.604-1.5
		c5.419-0.923,10.832-1.89,16.233-2.838c0.031-0.085,0.083-0.157,0.065-0.191c-1.251-2.401-0.954-4.877-0.37-7.37
		c0.985-4.203,1.97-8.406,2.951-12.611c1.118-4.792,6.193-7.024,10.499-4.581c3,1.702,5.978,3.445,8.937,5.217
		c0.636,0.382,1.217,0.476,1.925,0.342c2.229-0.422,4.466-0.792,6.698-1.197c2.348-0.426,4.245,0.833,4.786,3.182
		c0.047,0.206,0.105,0.433,0.23,0.592c2.973,3.791,5.954,7.575,8.966,11.402c2.517-1.592,5.143-2.829,7.978-3.603
		c2.842-0.776,5.731-1.123,8.673-0.991c0.554,0.025,1.132,0.076,1.646,0.26c1.157,0.412,1.803,1.704,1.521,2.869
		c-0.318,1.317-1.414,2.11-2.859,1.997c-2.893-0.225-5.729,0.09-8.456,1.04c-1.804,0.627-3.527,1.489-5.439,2.312
		c1.769,2.252,3.374,4.295,5.022,6.392c4.499-2.523,9.168-3.008,13.99-1.131c3.655,1.424,6.376,3.929,8.192,7.397
		c3.611,6.897,1.556,15.477-4.785,20.056c-6.368,4.598-15.141,3.8-20.61-1.84c-5.203-5.364-6.53-14.899,0.125-22.088
		c-1.618-2.058-3.244-4.127-4.966-6.316c-0.83,0.899-1.645,1.699-2.364,2.575c-3.155,3.841-4.948,8.246-5.193,13.216
		c-0.279,5.657-3.217,8.898-8.881,9.807c-4.786,0.767-9.551,1.657-14.324,2.496c-0.24,0.043-0.475,0.119-0.562,0.142
		c-0.328,1.802-0.43,3.576-0.985,5.195c-2.125,6.2-6.494,9.829-12.991,10.855c-0.178,0.027-0.349,0.105-0.523,0.161
		c-0.996,0-1.991,0-2.986,0c-0.36-0.074-0.718-0.16-1.081-0.219c-6.434-1.042-11.73-6.168-12.904-12.494
		c-1.245-6.706,1.689-13.263,7.463-16.679c5.704-3.373,12.961-2.805,18.053,1.406c1.126,0.931,2.272,1.837,3.41,2.754
		c-0.131,0.137-0.261,0.272-0.392,0.409c0.089-0.02,0.188-0.02,0.266-0.06c1.218-0.619,2.439-1.232,3.648-1.868
		c0.834-0.44,1.092-1.057,0.772-1.738c-0.329-0.7-1.038-0.883-1.91-0.47c-0.777,0.368-1.544,0.759-2.347,1.155
		c-1.243-1.892-2.92-3.194-4.853-4.193c-2.732-1.412-5.659-2.19-8.667-2.748c-0.655-0.122-1.35-0.453-1.851-0.889
		c-1.361-1.18-2.664-2.434-3.916-3.729c-0.531-0.549-1.021-0.638-1.727-0.495c-1.887,0.38-3.803,0.624-5.68,1.042
		c-1.316,0.293-2.302,0.003-3.031-1.129C0.217,47.12,0.217,46.685,0.217,46.249z M31.735,38.129
		c1.986,0.989,3.931,1.886,5.801,2.918c0.938,0.517,1.789,0.62,2.709,0.134c0.691-0.365,1.559-0.626,1.994-1.201
		c0.916-1.207,1.951-2.147,3.375-2.666c2.333-0.848,4.644-1.761,6.997-2.549c0.863-0.289,1.815-0.363,2.733-0.412
		c0.548-0.03,1.107,0.18,1.83,0.313c-1.603-2.031-3.096-3.926-4.529-5.744c-0.782,0.188-1.438,0.381-2.105,0.5
		c-3.026,0.54-6.051,1.085-9.087,1.561c-0.526,0.083-1.177-0.02-1.644-0.271c-1.851-0.999-3.65-2.091-5.546-3.193
		C33.411,31.099,32.584,34.563,31.735,38.129z M76.785,53.264c0.971,1.234,1.877,2.417,2.826,3.564
		c0.171,0.209,0.507,0.339,0.787,0.389c1.958,0.35,3.138,1.882,2.884,3.786c-0.231,1.741-1.876,2.985-3.694,2.797
		c-1.769-0.184-2.991-1.716-2.9-3.606c0.015-0.292,0.022-0.662-0.133-0.872c-0.907-1.216-1.864-2.396-2.812-3.595
		c-2.389,2.521-2.241,7.227,0.259,10.052c2.717,3.072,7.331,3.592,10.645,1.195c3.387-2.447,4.323-7.069,2.157-10.637
		C84.741,52.942,80.33,51.553,76.785,53.264z M22.283,66.353c-2.319-2.801-6.73-3.431-9.921-1.493
		c-3.445,2.09-4.814,6.325-3.229,9.985c1.583,3.654,5.547,5.587,9.375,4.571c3.15-0.837,6.005-4.16,5.687-6.704
		c-0.7,0.126-1.393,0.314-2.095,0.361c-0.74,0.049-1.106,0.388-1.463,1.034c-1.664,3.017-5.912,3.305-8.011,0.591
		c-1.417-1.831-1.38-4.345,0.09-6.115c1.46-1.76,3.936-2.241,6.004-1.206c0.319,0.158,0.78,0.299,1.076,0.186
		C20.631,67.243,21.414,66.787,22.283,66.353z"/>
	<path fill-rule="evenodd" clip-rule="evenodd" d="M32.97,0.5c0.483,0.144,0.972,0.27,1.447,0.436
		c3.402,1.19,5.452,4.716,4.788,8.218c-0.695,3.665-3.893,6.176-7.625,5.988c-3.632-0.183-6.592-3.017-6.909-6.614
		c-0.323-3.663,2.059-6.971,5.633-7.831c0.213-0.052,0.42-0.131,0.629-0.197C31.612,0.5,32.291,0.5,32.97,0.5z"/>
	<path fill-rule="evenodd" clip-rule="evenodd" d="M66.184,26.544c0.403,2.292,0.779,4.425,1.151,6.543
		c-1.621,0.769-4.667,0.079-5.687-1.249c-0.615-0.803-0.644-1.856,0.016-2.773C62.742,27.563,64.311,26.908,66.184,26.544z"/>
</g>
</svg>
