<?xml version="1.0" encoding="utf-8"?>
<!-- Generator: Adobe Illustrator 16.0.0, SVG Export Plug-In . SVG Version: 6.00 Build 0)  -->
<!DOCTYPE svg PUBLIC "-//W3C//DTD SVG 1.1//EN" "http://www.w3.org/Graphics/SVG/1.1/DTD/svg11.dtd">
<svg version="1.1" id="Layer_1" xmlns="http://www.w3.org/2000/svg" xmlns:xlink="http://www.w3.org/1999/xlink" x="0px" y="0px"
	 width="29px" height="29px" viewBox="0 0 29 29" enable-background="new 0 0 29 29" xml:space="preserve">
<path fill="#FFFFFF" d="M14.45,28.984C6.755,29.086,0.074,22.712,0,14.711C-0.076,6.461,6.42,0.287,13.891,0.022
	c8.823-0.313,14.912,6.761,15.104,14.071C29.216,22.514,22.238,29.164,14.45,28.984z M17.988,21.552c-0.413,0-0.78,0-1.148,0
	c-2.522,0.001-5.045-0.001-7.567,0.007c-0.235,0-0.315-0.076-0.31-0.313c0.014-0.578,0.003-1.157,0.003-1.735
	c0-1.232-0.005-2.465,0.002-3.697c0.001-0.229-0.066-0.33-0.307-0.313c-0.217,0.016-0.437,0.016-0.654-0.002
	c-0.255-0.02-0.317,0.088-0.316,0.331c0.008,2.162,0.004,4.323,0.003,6.485c0,0.453,0,0.453,0.448,0.453
	c2.238,0.002,4.476,0.002,6.713,0.004c1.309,0.002,2.618,0.013,3.926,0.004c0.423-0.002,0.421-0.021,0.42-0.436
	c-0.002-1.251-0.003-2.502-0.003-3.753c0-0.93-0.003-1.858,0.006-2.788c0.003-0.219-0.067-0.313-0.294-0.298
	c-0.207,0.015-0.418,0.013-0.625-0.003c-0.223-0.016-0.301,0.07-0.299,0.294c0.008,1.015,0.002,2.028,0.002,3.043
	C17.988,19.725,17.988,20.615,17.988,21.552z M13.399,18.882L13.399,18.882c-1.061-0.001-2.122,0.002-3.183-0.003
	c-0.22-0.001-0.363,0.036-0.347,0.311c0.02,0.32,0.018,0.645,0.002,0.966c-0.012,0.247,0.099,0.31,0.322,0.307
	c0.795-0.009,1.591-0.008,2.387-0.009c1.317,0,2.635,0,3.951,0.005c0.223,0.001,0.363-0.039,0.347-0.312
	c-0.019-0.312-0.017-0.625-0.001-0.938c0.014-0.245-0.072-0.332-0.322-0.33C15.503,18.889,14.451,18.882,13.399,18.882z
	 M21.521,11.85c-0.027-0.187-0.041-0.3-0.061-0.412c-0.143-0.841-0.281-1.682-0.427-2.522c-0.202-1.176-0.412-2.352-0.608-3.529
	c-0.033-0.201-0.125-0.254-0.31-0.22c-0.279,0.053-0.562,0.095-0.841,0.149c-0.348,0.068-0.381,0.113-0.323,0.455
	c0.198,1.207,0.397,2.414,0.604,3.619c0.146,0.859,0.305,1.717,0.461,2.575c0.024,0.141,0.043,0.3,0.252,0.262
	c0.344-0.063,0.69-0.119,1.03-0.201C21.393,12.002,21.466,11.895,21.521,11.85z M18.613,13.158c0.074-0.041,0.117-0.061,0.156-0.087
	c0.252-0.169,0.506-0.334,0.75-0.512c0.285-0.207,0.293-0.262,0.098-0.55c-0.473-0.698-0.942-1.397-1.422-2.09
	c-0.698-1.013-1.41-2.017-2.104-3.034c-0.154-0.229-0.295-0.254-0.502-0.094c-0.193,0.15-0.388,0.305-0.596,0.436
	c-0.272,0.17-0.24,0.34-0.076,0.578c0.582,0.841,1.141,1.696,1.716,2.541c0.597,0.876,1.198,1.749,1.802,2.621
	C18.486,13.038,18.557,13.097,18.613,13.158z M17.504,15.155c-0.088-0.058-0.161-0.134-0.249-0.157
	c-2.071-0.561-4.145-1.11-6.214-1.676c-0.23-0.063-0.316,0.016-0.369,0.21c-0.071,0.265-0.145,0.529-0.212,0.795
	c-0.093,0.362-0.088,0.371,0.267,0.47c0.984,0.271,1.968,0.543,2.953,0.811c1.012,0.274,2.024,0.55,3.041,0.812
	c0.114,0.029,0.338,0.008,0.362-0.052C17.24,15.992,17.354,15.602,17.504,15.155z M9.967,17.459c-0.01,0.434-0.01,0.436,0.422,0.456
	c0.094,0.005,0.189,0.006,0.284,0.015c1.969,0.176,3.938,0.353,5.908,0.533c0.213,0.02,0.334-0.056,0.354-0.264
	c0.027-0.311,0.037-0.622,0.064-0.934c0.018-0.201-0.085-0.268-0.264-0.283c-0.611-0.058-1.225-0.117-1.835-0.178
	c-1.487-0.144-2.975-0.281-4.462-0.436c-0.25-0.025-0.357,0.082-0.388,0.299C10.014,16.932,9.995,17.195,9.967,17.459z M12.432,9.9
	c-0.066,0.06-0.15,0.109-0.198,0.182c-0.151,0.229-0.295,0.463-0.432,0.701c-0.182,0.318-0.177,0.328,0.146,0.525
	c0.356,0.217,0.712,0.433,1.071,0.646c1.41,0.837,2.819,1.674,4.231,2.507c0.342,0.202,0.35,0.198,0.561-0.148
	c0.138-0.227,0.254-0.467,0.395-0.691c0.126-0.202,0.064-0.314-0.128-0.428c-1.808-1.058-3.61-2.122-5.415-3.183
	C12.596,9.974,12.525,9.946,12.432,9.9z"/>
</svg>
