<?xml version="1.0" encoding="utf-8"?>
<!-- Generator: Adobe Illustrator 16.0.0, SVG Export Plug-In . SVG Version: 6.00 Build 0)  -->
<!DOCTYPE svg PUBLIC "-//W3C//DTD SVG 1.1//EN" "http://www.w3.org/Graphics/SVG/1.1/DTD/svg11.dtd">
<svg version="1.1" id="Layer_1" xmlns="http://www.w3.org/2000/svg" xmlns:xlink="http://www.w3.org/1999/xlink" x="0px" y="0px"
	 width="138px" height="88px" viewBox="0 0 138 88" enable-background="new 0 0 138 88" xml:space="preserve">
<g>
	<path fill="#11DAE2" d="M70.68,17.23c-10.491,9.971-11.687,25.95-2.782,37.168c5.305,6.686,13.223,10.52,21.721,10.52
		c6.279,0,12.3-2.104,17.408-6.082l1.129-0.88l0.563,1.317l0.104,0.234c0.07,0.159,0.141,0.314,0.199,0.471l1.096,2.883
		c1.107,2.916,2.214,5.832,3.338,8.742c0.125,0.326,0.328,0.652,0.561,0.899c3.08,3.267,6.172,6.522,9.264,9.778l2.654,2.797
		c1.227,1.293,2.854,2.004,4.582,2.004c1.141,0,2.28-0.316,3.299-0.921c3.229-1.914,4.381-6.011,2.564-9.134
		c-0.166-0.284-0.38-0.565-0.634-0.836c-4.011-4.284-7.94-8.479-11.963-12.724c-0.306-0.321-0.72-0.614-1.134-0.801
		c-2.803-1.248-5.666-2.496-8.437-3.703l-2.95-1.288c-0.14-0.061-0.275-0.128-0.428-0.203l-0.208-0.103l-1.294-0.629l0.943-1.089
		c10.193-11.729,9.175-28.907-2.321-39.107c-5.136-4.557-11.619-7.066-18.259-7.066v-0.55l0,0v0.552
		C82.691,9.481,75.938,12.233,70.68,17.23z M108.376,36.968c0.026,11.855-9.467,18.986-18.659,19.03h-0.089
		c-10.293,0-18.688-8.455-18.715-18.847c-0.026-10.13,8.505-18.714,18.633-18.743C99.755,18.408,108.354,26.907,108.376,36.968z"/>
	<g>
		<path fill="#11DAE2" d="M49.292,4.083c5.735,0,11.231,0.698,16.334,2.075c2.341,0.631,4.603,1.391,6.758,2.27
			c-1.989,1.239-3.861,2.688-5.593,4.333c-12.725,12.095-14.161,31.496-3.338,45.13c2.676,3.373,5.964,6.198,9.65,8.318
			c-1.684,0.715-3.438,1.359-5.248,1.932c-2.79,0.877-5.709,1.551-8.677,1.998c-3.204,0.481-6.489,0.728-9.763,0.728
			c-1.373,0-2.772-0.043-4.158-0.128c-2.302-0.143-4.788-0.436-7.606-0.896c-0.126-0.021-0.26-0.031-0.397-0.031
			c-0.542,0-1.082,0.166-1.532,0.478c-3.37,2.369-7.03,4.36-10.879,5.918c-3.582,1.45-6.858,2.438-10.014,3.021
			c-0.994,0.185-1.999,0.336-3.076,0.502c-0.063-0.012-0.208-0.113-0.25-0.235c-0.069-0.204-0.124-0.365,0.337-0.854
			c0.386-0.41,0.761-0.83,1.135-1.252c0.308-0.346,0.616-0.691,0.931-1.029c2.112-2.266,3.668-4.263,4.898-6.287
			c0.554-0.91,1.006-1.85,1.444-2.756c0.186-0.386,0.372-0.771,0.565-1.152c0.464-0.916,0.159-2.035-0.707-2.588
			c-0.341-0.219-0.675-0.43-1.001-0.635c-0.664-0.418-1.291-0.813-1.892-1.221c-5.131-3.488-8.91-7.529-11.553-12.355
			c-1.666-3.039-2.66-6.261-2.954-9.576c-0.577-6.482,1.124-12.32,5.198-17.849c2.792-3.789,6.413-7.063,10.762-9.732
			c4.834-2.967,10.285-5.167,16.2-6.539c4.365-1.013,9.035-1.545,13.88-1.582L49.292,4.083 M16.612,29.055h33.097
			c1.104,0,2-0.896,2-2V23.68c0-1.104-0.896-2-2-2H16.612c-1.104,0-2,0.896-2,2v3.375C14.612,28.16,15.508,29.055,16.612,29.055
			 M16.598,41.076h33.103c1.104,0,2-0.896,2-2v-3.374c0-1.104-0.896-2-2-2H16.598c-1.104,0-2,0.896-2,2v3.374
			C14.598,40.181,15.494,41.076,16.598,41.076 M16.598,53.1h33.104c1.104,0,2-0.896,2-2v-3.377c0-1.104-0.896-2-2-2H16.598
			c-1.104,0-2,0.896-2,2V51.1C14.598,52.204,15.494,53.1,16.598,53.1 M49.292,2.083c-0.187,0-0.373,0-0.56,0.002
			c-4.831,0.036-9.607,0.54-14.317,1.633C28.462,5.1,22.837,7.3,17.621,10.501c-4.414,2.708-8.246,6.069-11.327,10.25
			C2.08,26.47,0.08,32.835,0.714,39.961c0.327,3.68,1.422,7.129,3.192,10.359c2.949,5.385,7.137,9.619,12.182,13.05
			c0.932,0.633,1.896,1.218,2.939,1.885c-0.641,1.267-1.203,2.571-1.934,3.774c-1.314,2.162-2.926,4.109-4.651,5.96
			c-0.697,0.747-1.357,1.53-2.058,2.271c-0.778,0.826-1.164,1.732-0.777,2.872c0.31,0.914,1.216,1.592,2.132,1.592
			c0.089,0,0.179-0.007,0.268-0.021c1.063-0.158,2.126-0.318,3.184-0.515c3.582-0.66,7.033-1.771,10.402-3.135
			c3.991-1.615,7.753-3.656,11.278-6.135c0.101-0.068,0.251-0.113,0.382-0.113c0.028,0,0.055,0.002,0.08,0.006
			c2.586,0.424,5.183,0.758,7.8,0.918c1.429,0.088,2.855,0.133,4.281,0.133c3.365,0,6.719-0.246,10.061-0.75
			c3.045-0.459,6.04-1.143,8.979-2.068c3.206-1.01,6.297-2.259,9.252-3.796c-4.901-2.028-9.271-5.297-12.689-9.604
			c-10.173-12.815-8.819-31.061,3.15-42.437c2.615-2.484,5.558-4.482,8.71-5.944c-3.417-1.707-7.004-3.035-10.732-4.04
			C60.625,2.738,55,2.083,49.292,2.083L49.292,2.083z M16.612,27.055c0-1.146,0-2.261,0-3.375c11.044,0,22.063,0,33.097,0
			c0,1.131,0,2.236,0,3.375C38.658,27.055,27.631,27.055,16.612,27.055L16.612,27.055z M16.598,39.076c0-1.136,0-2.241,0-3.374
			c11.058,0,22.082,0,33.103,0c0,1.143,0,2.257,0,3.374C38.654,39.076,27.631,39.076,16.598,39.076L16.598,39.076z M16.598,51.1
			c0-1.136,0-2.24,0-3.377c11.054,0,22.079,0,33.104,0c0,1.145,0,2.258,0,3.377C38.657,51.1,27.633,51.1,16.598,51.1L16.598,51.1z"
			/>
	</g>
</g>
</svg>
