<?xml version="1.0" encoding="utf-8"?>
<!-- Generator: Adobe Illustrator 16.0.0, SVG Export Plug-In . SVG Version: 6.00 Build 0)  -->
<!DOCTYPE svg PUBLIC "-//W3C//DTD SVG 1.1//EN" "http://www.w3.org/Graphics/SVG/1.1/DTD/svg11.dtd">
<svg version="1.1" id="Layer_1" xmlns="http://www.w3.org/2000/svg" xmlns:xlink="http://www.w3.org/1999/xlink" x="0px" y="0px"
	 width="70px" height="60px" viewBox="0 0 70 60" enable-background="new 0 0 70 60" xml:space="preserve">
<path fill="#FFFFFF" d="M68.5,5.747c-0.73-3.418-3.611-4.318-7.184-4.323C52.55,1.412,35.024,1.417,35.024,1.416
	c-8.607,0-27.087,0-27.7,0.109c-3.586,0.637-5.949,2.123-5.985,5.91c-0.025,2.719-0.01,30.594-0.001,40.413
	c0.004,4.055,2.778,5.652,6.704,5.99h53.343v0.026c4.295-0.107,7.288-1.761,7.291-6.101C68.682,35.337,68.637,6.378,68.5,5.747z
	 M65.449,47.828c-0.002,1.849-1.018,2.824-2.922,2.826c-15.168,0.003-52.798,0.009-55.045,0.003
	c-1.924-0.005-2.924-0.99-2.925-2.896c-0.002-12.474-0.002-27.742,0-40.215c0.001-1.953,0.987-2.92,2.959-2.92
	c8.698,0,46.283,0.001,54.982,0.003c1.979,0,2.951,0.946,2.953,2.918C65.455,20.042,65.455,35.333,65.449,47.828z"/>
<path fill="#FFFFFF" d="M23.472,58.152c0,0.697,0.719,1.264,1.604,1.264h19.852c0.887,0,1.604-0.564,1.604-1.264l0,0
	c0-0.697-0.718-1.264-1.604-1.264H25.077C24.191,56.891,23.472,57.455,23.472,58.152L23.472,58.152z"/>
<g>
	<path fill="#FFFFFF" d="M51.18,24.473H18.822v-6.502H51.18V24.473z M19.856,23.439h30.287v-4.434H19.856V23.439z"/>
</g>
<g>
	<path fill="#FFFFFF" d="M33.596,31.904H18.822v-5.367h14.774V31.904z M19.856,30.87h12.706v-3.298H19.856V30.87z"/>
</g>
<g>
	<path fill="#FFFFFF" d="M51.18,31.904H36.404v-5.367h14.773v5.367H51.18z M37.438,30.87h12.705v-3.298H37.438V30.87z"/>
</g>
<path fill="#FFFFFF" d="M16.402,9.042v37.196H53.6V9.042H16.402z M52.563,10.076v4.54H17.436v-4.54H52.563z M17.436,45.204V15.651
	h35.126v29.553H17.436z"/>
<g>
	<rect x="19.339" y="34.07" fill="#FFFFFF" width="13.74" height="1.033"/>
</g>
<g>
	<rect x="19.339" y="37.666" fill="#FFFFFF" width="13.74" height="1.035"/>
</g>
<g>
	<rect x="19.339" y="41.305" fill="#FFFFFF" width="13.74" height="1.033"/>
</g>
<g>
	<rect x="36.921" y="34.07" fill="#FFFFFF" width="13.74" height="1.033"/>
</g>
<g>
	<rect x="36.921" y="37.666" fill="#FFFFFF" width="13.74" height="1.035"/>
</g>
<g>
	<rect x="36.921" y="41.305" fill="#FFFFFF" width="13.74" height="1.033"/>
</g>
<rect x="19.232" y="11.395" fill="#FFFFFF" width="3.893" height="1.85"/>
<rect x="45.088" y="11.244" fill="#FFFFFF" width="1.145" height="1.144"/>
<rect x="47.156" y="11.244" fill="#FFFFFF" width="1.145" height="1.144"/>
<rect x="49.225" y="11.244" fill="#FFFFFF" width="1.146" height="1.144"/>
</svg>
