<?xml version="1.0" encoding="utf-8"?>
<!-- Generator: Adobe Illustrator 16.0.0, SVG Export Plug-In . SVG Version: 6.00 Build 0)  -->
<!DOCTYPE svg PUBLIC "-//W3C//DTD SVG 1.1//EN" "http://www.w3.org/Graphics/SVG/1.1/DTD/svg11.dtd">
<svg version="1.1" id="Layer_1" xmlns="http://www.w3.org/2000/svg" xmlns:xlink="http://www.w3.org/1999/xlink" x="0px" y="0px"
	 width="45px" height="45px" viewBox="0 0 45 45" enable-background="new 0 0 45 45" xml:space="preserve">
<g>
	<path fill="#FFFFFF" d="M22.5,0.5c-12.131,0-22,9.869-22,22s9.869,22,22,22s22-9.869,22-22S34.631,0.5,22.5,0.5z M22.5,43.063
		c-8.232,0-15.313-4.849-18.598-11.836c-0.019-0.038-0.038-0.076-0.056-0.115c-0.169-0.365-0.329-0.733-0.477-1.109
		c-0.001-0.004-0.002-0.008-0.004-0.011c-0.269-0.687-0.498-1.391-0.693-2.11c-0.048-0.18-0.095-0.359-0.139-0.541
		c-0.12-0.495-0.219-0.997-0.303-1.506c-0.044-0.27-0.09-0.539-0.124-0.813c-0.039-0.317-0.067-0.638-0.091-0.96
		c-0.021-0.277-0.033-0.557-0.042-0.837c-0.008-0.243-0.037-0.48-0.037-0.725c0-11.356,9.206-20.563,20.563-20.563
		c11.355,0,20.563,9.206,20.563,20.563c0,0.227-0.026,0.446-0.034,0.671c-0.01,0.307-0.022,0.612-0.046,0.915
		c-0.023,0.308-0.051,0.614-0.088,0.918c-0.04,0.331-0.094,0.658-0.149,0.984c-0.076,0.445-0.167,0.885-0.271,1.32
		c-0.049,0.203-0.101,0.405-0.155,0.606c-0.181,0.659-0.391,1.305-0.633,1.936c-0.021,0.057-0.04,0.114-0.063,0.171
		c-0.143,0.362-0.297,0.718-0.46,1.07c-0.03,0.065-0.063,0.129-0.094,0.194c-0.328,0.691-0.691,1.361-1.092,2.008
		c-0.01,0.016-0.019,0.031-0.028,0.047C36.319,39.17,29.872,43.063,22.5,43.063z"/>
	<g>
		<path fill-rule="evenodd" clip-rule="evenodd" fill="#FFFFFF" d="M27.003,21.693c0.065-0.216,0.143-0.424,0.188-0.637
			c0.233-1.096-0.048-2.053-0.805-2.874c-0.218-0.237-0.479-0.423-0.754-0.585c-0.897-0.529-1.794-1.059-2.69-1.586
			c-0.071-0.041-0.105-0.088-0.121-0.17c-0.177-0.923-0.302-1.852-0.281-2.795c0.016-0.641,0.123-1.265,0.382-1.856
			c0.281-0.643,0.718-1.155,1.294-1.551c0.709-0.488,1.508-0.753,2.338-0.938c0.814-0.181,1.639-0.286,2.471-0.322
			c1.104-0.047,2.21-0.067,3.314-0.101c0.018,0,0.034,0.001,0.076,0.004c-0.04,0.043-0.066,0.072-0.095,0.101
			c-1.36,1.36-2.721,2.721-4.082,4.08c-0.058,0.059-0.084,0.112-0.072,0.195c0.064,0.511,0.221,0.993,0.465,1.442
			c0.638,1.18,1.572,2.033,2.839,2.498c0.265,0.097,0.549,0.139,0.825,0.205c0.086,0.021,0.149-0.005,0.216-0.071
			c1.353-1.358,2.709-2.713,4.064-4.068c0.029-0.03,0.056-0.064,0.104-0.121c0.006,0.063,0.012,0.091,0.011,0.12
			c-0.018,1-0.02,1.999-0.057,2.997c-0.037,0.984-0.123,1.965-0.336,2.931c-0.173,0.789-0.423,1.548-0.883,2.224
			c-0.465,0.685-1.092,1.16-1.878,1.417c-0.856,0.281-1.733,0.325-2.624,0.219c-0.961-0.116-1.898-0.352-2.842-0.553
			c-0.323-0.069-0.649-0.123-0.974-0.185C27.063,21.708,27.027,21.699,27.003,21.693z"/>
		<path fill-rule="evenodd" clip-rule="evenodd" fill="#FFFFFF" d="M8.314,26.77c0-3.316,0-6.625,0-9.947
			c0.045,0.018,0.08,0.031,0.115,0.045c1.064,0.417,2.125,0.842,3.193,1.249c0.344,0.13,0.704,0.218,1.061,0.316
			c0.337,0.093,0.669,0.033,0.995-0.072c0.442-0.141,0.823-0.399,1.211-0.643c0.752-0.471,1.435-1.032,2.117-1.599
			c0.229-0.192,0.486-0.358,0.748-0.507c0.518-0.294,1.06-0.294,1.581-0.016c0.701,0.376,1.392,0.771,2.079,1.171
			c1.185,0.69,2.365,1.388,3.545,2.087c0.625,0.371,0.946,0.931,0.888,1.653c-0.107,1.343-1.509,2.053-2.673,1.374
			c-0.66-0.384-1.314-0.779-1.974-1.165c-0.368-0.215-0.762-0.347-1.197-0.323c-0.378,0.02-0.717,0.149-0.995,0.407
			c-2.139,1.984-4.276,3.966-6.409,5.955c-0.438,0.408-0.944,0.591-1.534,0.559c-0.618-0.034-1.214-0.185-1.814-0.314
			c-0.285-0.063-0.567-0.135-0.85-0.204C8.372,26.789,8.342,26.778,8.314,26.77z"/>
		<path fill-rule="evenodd" clip-rule="evenodd" fill="#FFFFFF" d="M25.878,27.241c0.18,0.199,0.345,0.403,0.425,0.661
			c0.163,0.526,0.072,1.004-0.292,1.422c-0.228,0.258-0.489,0.467-0.835,0.544c-0.488,0.109-0.921-0.002-1.298-0.332
			c-0.016-0.015-0.032-0.028-0.061-0.053c0.454,0.8,0.315,1.491-0.372,2.054c-0.571,0.466-1.185,0.44-1.765,0.061
			c0.069,0.167,0.174,0.351,0.22,0.548c0.112,0.473,0,0.902-0.323,1.269c-0.232,0.265-0.499,0.478-0.853,0.554
			c-0.486,0.104-0.927,0.005-1.284-0.339c-0.65-0.628-1.284-1.272-1.917-1.915c-0.103-0.104-0.19-0.235-0.249-0.369
			c-0.244-0.556-0.17-1.075,0.222-1.542c0.259-0.307,0.571-0.531,0.983-0.585c0.321-0.041,0.623,0.015,0.905,0.172
			c0.039,0.021,0.078,0.046,0.134,0.051c-0.062-0.059-0.125-0.116-0.186-0.177c-0.608-0.612-0.605-1.477,0.001-2.093
			c0.456-0.463,0.983-0.611,1.604-0.397c0.056,0.02,0.111,0.048,0.164,0.075c0.051,0.026,0.099,0.058,0.16,0.075
			c-0.083-0.083-0.165-0.166-0.249-0.247c-0.199-0.197-0.338-0.429-0.401-0.703c-0.1-0.438-0.017-0.843,0.259-1.198
			c0.252-0.324,0.559-0.577,0.981-0.648c0.498-0.084,0.928,0.055,1.288,0.408c0.114,0.111,0.223,0.229,0.334,0.343
			c0.007-0.005,0.015-0.01,0.021-0.015c-0.02-0.035-0.04-0.07-0.062-0.104c-0.303-0.522-0.229-1.209,0.176-1.657
			c0.238-0.263,0.503-0.481,0.861-0.557c0.474-0.101,0.9-0.001,1.259,0.322c0.288,0.259,0.554,0.542,0.828,0.816
			c0.389,0.388,0.763,0.788,1.166,1.159c0.635,0.585,0.702,1.573-0.051,2.239c-0.506,0.449-1.15,0.528-1.742,0.189
			C25.914,27.26,25.896,27.252,25.878,27.241z"/>
		<path fill-rule="evenodd" clip-rule="evenodd" fill="#FFFFFF" d="M21.756,22.692c-0.36,0.072-0.708,0.164-1.019,0.349
			c-0.921,0.549-1.489,1.332-1.571,2.425c-0.005,0.069-0.029,0.105-0.089,0.14c-0.842,0.473-1.393,1.162-1.567,2.128
			c-0.012,0.068-0.03,0.14-0.027,0.211c0.002,0.094-0.044,0.133-0.121,0.174c-0.763,0.417-1.309,1.022-1.536,1.874
			c-0.229,0.852-0.078,1.646,0.417,2.375c0.03,0.044,0.063,0.087,0.1,0.139c-0.164,0.19-0.326,0.381-0.491,0.571
			c-0.612,0.712-1.214,1.433-1.84,2.13c-0.504,0.564-1.089,1.033-1.798,1.323c-0.787,0.322-1.539,0.231-2.242-0.238
			c-0.579-0.387-1.062-0.869-1.383-1.494c-0.308-0.597-0.359-1.219-0.165-1.86c0.185-0.617,0.542-1.13,0.964-1.604
			c0.413-0.464,0.912-0.834,1.378-1.241c0.644-0.564,1.291-1.127,1.946-1.68c2.5-2.104,4.908-4.313,7.334-6.502
			c0.1-0.09,0.185-0.102,0.291-0.042c0.242,0.137,0.481,0.275,0.721,0.414C21.292,22.418,21.523,22.556,21.756,22.692z
			 M11.794,32.108c-0.582,0.001-1.063,0.485-1.062,1.069c0,0.582,0.484,1.064,1.067,1.063c0.579,0,1.067-0.49,1.065-1.069
			C12.863,32.594,12.374,32.107,11.794,32.108z"/>
	</g>
</g>
</svg>
