<?xml version="1.0" encoding="utf-8"?>
<!-- Generator: Adobe Illustrator 16.0.0, SVG Export Plug-In . SVG Version: 6.00 Build 0)  -->
<!DOCTYPE svg PUBLIC "-//W3C//DTD SVG 1.1//EN" "http://www.w3.org/Graphics/SVG/1.1/DTD/svg11.dtd">
<svg version="1.1" id="Layer_1" xmlns="http://www.w3.org/2000/svg" xmlns:xlink="http://www.w3.org/1999/xlink" x="0px" y="0px"
	 width="70px" height="60px" viewBox="0 0 70 60" enable-background="new 0 0 70 60" xml:space="preserve">
<g>
	<g>
		<path fill="#FFFFFF" d="M59.482,1.155c0.509,0.671,0.604,1.327,0.06,2.057c-5.147,6.917-10.272,13.85-15.44,20.752
			c-0.393,0.523-1.106,1.232-1.59,1.174c-1.225-0.147-2.229-0.933-2.729-2.127c-0.104-0.241,0.117-0.714,0.324-0.973
			c1.569-1.968,3.125-3.952,4.775-5.853c4.049-4.665,8.143-9.292,12.232-13.923C57.521,1.804,58.008,1.419,58.457,1
			C58.799,1.052,59.141,1.104,59.482,1.155z"/>
		<path fill="#FFFFFF" d="M25.21,35.962c0.315-0.096,0.389-0.146,0.444-0.131c2.248,0.628,3.63-0.409,4.542-2.354
			c0.044-0.094,0.096-0.185,0.151-0.271c1.651-2.546,3.26-2.589,5.023-0.144c0.505,0.698,0.61,1.422,0.315,2.24
			c-0.875,2.426-2.997,3.828-5.509,3.288c-1.409-0.302-2.726-1.067-4.056-1.687C25.793,36.75,25.578,36.354,25.21,35.962z"/>
		<path fill="#FFFFFF" d="M42.271,26.122c-1.705,1.849-3.5,3.84-5.354,5.778c-0.541,0.567-1.277,0.521-1.898,0.064
			c-0.682-0.501-0.841-1.263-0.413-1.938c1.418-2.233,2.915-4.415,4.313-6.514C40.064,24.404,41.12,25.227,42.271,26.122z"/>
	</g>
	<path fill="#FFFFFF" d="M24.576,57.857c0,0.631,0.65,1.143,1.451,1.143h17.95c0.803,0,1.451-0.512,1.451-1.143l0,0
		c0-0.633-0.648-1.144-1.451-1.144h-17.95C25.226,56.715,24.576,57.227,24.576,57.857L24.576,57.857z"/>
	<path fill="#FFFFFF" d="M65.291,10.471c-0.661-3.091-3.268-3.905-6.495-3.909c-0.269,0-0.547,0-0.832-0.001
		c-0.718,0.966-1.437,1.932-2.153,2.898c1.688,0,3.073,0,4.053,0c1.791,0,2.671,0.855,2.672,2.639
		c0.004,11.298,0.004,25.125-0.001,36.423c-0.001,1.672-0.921,2.555-2.642,2.556c-13.717,0.002-47.743,0.008-49.773,0.002
		c-1.74-0.003-2.644-0.896-2.645-2.619c-0.002-11.278-0.002-25.084,0-36.362c0-1.766,0.892-2.64,2.675-2.641
		c5.886,0,26.397,0,39.645,0.001C50.648,8.487,51.5,7.52,52.35,6.557C44.41,6.554,35.022,6.556,35.022,6.556
		c-7.783,0-24.493,0-25.047,0.098c-3.242,0.576-5.379,1.92-5.412,5.343C4.541,14.456,4.554,39.66,4.562,48.539
		c0.003,3.666,2.512,5.109,6.062,5.416h48.233v0.023c3.884-0.097,6.591-1.592,6.593-5.517
		C65.455,37.227,65.413,11.042,65.291,10.471z"/>
</g>
</svg>
