<?xml version="1.0" encoding="utf-8"?>
<!-- Generator: Adobe Illustrator 16.0.0, SVG Export Plug-In . SVG Version: 6.00 Build 0)  -->
<!DOCTYPE svg PUBLIC "-//W3C//DTD SVG 1.1//EN" "http://www.w3.org/Graphics/SVG/1.1/DTD/svg11.dtd">
<svg version="1.1" id="Layer_1" xmlns="http://www.w3.org/2000/svg" xmlns:xlink="http://www.w3.org/1999/xlink" x="0px" y="0px"
	 width="70px" height="60px" viewBox="0 0 70 60" enable-background="new 0 0 70 60" xml:space="preserve">
<path fill="#FFFFFF" d="M67.543,5.207c-0.711-3.32-3.51-4.195-6.979-4.199C52.05,0.997,35.023,1.001,35.023,1
	C26.663,1,8.71,1,8.114,1.105C4.631,1.724,2.335,3.168,2.3,6.846C2.276,9.487,2.29,36.564,2.299,46.104
	c0.004,3.938,2.699,5.49,6.512,5.818H60.63v0.026c4.173-0.104,7.08-1.71,7.083-5.927C67.719,33.951,67.674,5.82,67.543,5.207z
	 M64.579,46.086c-0.001,1.795-0.987,2.744-2.837,2.744c-14.736,0.003-51.292,0.009-53.474,0.003
	c-1.869-0.003-2.841-0.962-2.842-2.813c-0.002-12.117-0.002-26.949,0-39.064c0-1.897,0.959-2.836,2.875-2.836
	C16.75,4.118,53.262,4.12,61.712,4.121c1.922,0,2.867,0.919,2.869,2.835C64.585,19.093,64.585,33.947,64.579,46.086z"/>
<g>
	<path fill="#FFFFFF" d="M30.25,19.528c0,1.141,0.029,2.183-0.024,3.22c-0.011,0.213-0.294,0.513-0.518,0.602
		c-2.568,1.019-5.149,2.003-7.726,2.999c-0.151,0.059-0.296,0.133-0.523,0.235c2.753,1.086,5.425,2.16,8.116,3.183
		c0.536,0.204,0.72,0.46,0.688,1.024c-0.051,0.916-0.014,1.836-0.014,2.841c-0.265-0.097-0.458-0.155-0.645-0.235
		c-3.858-1.67-7.712-3.35-11.576-5.005c-0.4-0.172-0.601-0.352-0.572-0.816c0.051-0.824-0.248-1.834,0.132-2.427
		c0.375-0.583,1.399-0.763,2.151-1.091c3.225-1.408,6.455-2.807,9.684-4.206C29.656,19.75,29.898,19.665,30.25,19.528z"/>
	<path fill="#FFFFFF" d="M39.815,33.611c0-1.127-0.026-2.209,0.026-3.286c0.009-0.173,0.351-0.393,0.581-0.485
		c2.544-1.016,5.096-2.013,7.646-3.015c0.15-0.06,0.299-0.128,0.568-0.244c-1.205-0.472-2.304-0.908-3.406-1.335
		c-1.629-0.632-3.26-1.269-4.896-1.876c-0.396-0.146-0.549-0.346-0.532-0.773c0.029-0.967,0.008-1.936,0.008-3.008
		c0.309,0.117,0.545,0.196,0.774,0.294c3.819,1.644,7.634,3.296,11.457,4.927c0.403,0.173,0.589,0.375,0.563,0.833
		c-0.041,0.683,0.014,1.373-0.027,2.057c-0.014,0.204-0.174,0.503-0.346,0.579c-4.019,1.774-8.051,3.521-12.08,5.273
		C40.074,33.584,39.979,33.583,39.815,33.611z"/>
	<path fill="#FFFFFF" d="M33.001,36.093c-1.005,0.005-1.461-0.532-1.223-1.579c0.676-2.971,1.385-5.934,2.096-8.896
		c0.6-2.505,1.203-5.008,1.84-7.503c0.269-1.051,0.778-1.384,1.652-1.219c0.769,0.146,1.139,0.682,0.95,1.531
		c-0.385,1.729-0.812,3.449-1.229,5.17c-0.9,3.719-1.8,7.439-2.717,11.155C34.113,35.796,33.776,36.089,33.001,36.093z"/>
</g>
<path fill="#FFFFFF" d="M23.798,56.115c0,0.677,0.698,1.228,1.559,1.228h19.285c0.862,0,1.561-0.551,1.561-1.228l0,0
	c0-0.68-0.697-1.229-1.561-1.229H25.357C24.497,54.889,23.798,55.438,23.798,56.115L23.798,56.115z"/>
</svg>
