<?xml version="1.0" encoding="utf-8"?>
<!-- Generator: Adobe Illustrator 16.0.0, SVG Export Plug-In . SVG Version: 6.00 Build 0)  -->
<!DOCTYPE svg PUBLIC "-//W3C//DTD SVG 1.1//EN" "http://www.w3.org/Graphics/SVG/1.1/DTD/svg11.dtd">
<svg version="1.1" id="Layer_1" xmlns="http://www.w3.org/2000/svg" xmlns:xlink="http://www.w3.org/1999/xlink" x="0px" y="0px"
	 width="40px" height="60px" viewBox="0 0 40 60" enable-background="new 0 0 40 60" xml:space="preserve">
<g>
	<path fill="#FFFFFF" d="M20.028,24.165c8.787,0.002,15.902,7.067,15.876,15.765c-0.026,8.682-7.187,15.754-15.934,15.743
		c-8.74-0.015-15.885-7.124-15.874-15.802C4.108,31.17,11.216,24.162,20.028,24.165z"/>
	<path fill="#FFFFFF" d="M20.064,20.795c10.782,0.061,19.172,8.611,19.125,19.493C39.146,50.613,30.409,59.049,19.806,59
		C9.111,58.949,0.742,50.307,0.81,39.38C0.873,29.211,9.653,20.737,20.064,20.795z M20.043,56.449
		c9.123-0.004,16.63-7.447,16.641-16.497c0.008-9.121-7.504-16.629-16.661-16.65c-9.138-0.021-16.707,7.502-16.704,16.604
		C3.321,49.029,10.827,56.454,20.043,56.449z"/>
	<path fill="#FFFFFF" d="M3.331,1.003c3.979,0,7.778-0.015,11.576,0.023c0.355,0.004,0.85,0.25,1.038,0.541
		c3.392,5.246,6.747,10.515,10.269,16.03c-0.878,0-1.539,0-2.198,0c-3.109,0-6.219,0.022-9.328-0.027
		c-0.432-0.006-1.042-0.25-1.26-0.584c-3.316-5.1-6.58-10.231-9.852-15.359C3.49,1.492,3.455,1.324,3.331,1.003z"/>
	<path fill="#FFFFFF" d="M36.822,1.005c-3.43,5.366-6.693,10.474-10.047,15.72c-2.045-3.201-4.002-6.239-5.909-9.306
		c-0.147-0.236-0.069-0.75,0.094-1.02c0.985-1.619,2.008-3.217,3.063-4.792c0.186-0.275,0.584-0.574,0.89-0.577
		C28.784,0.992,32.654,1.005,36.822,1.005z"/>
	<path fill="#FFFFFF" d="M26.087,18.623c0.296,0.824,0.067,1.151-0.782,1.146c-3.529-0.023-7.059-0.025-10.587,0.001
		c-0.839,0.007-1.08-0.307-0.83-1.147C17.927,18.623,21.957,18.623,26.087,18.623z"/>
</g>
</svg>
