<?xml version="1.0" encoding="utf-8"?>
<!-- Generator: Adobe Illustrator 16.0.0, SVG Export Plug-In . SVG Version: 6.00 Build 0)  -->
<!DOCTYPE svg PUBLIC "-//W3C//DTD SVG 1.1//EN" "http://www.w3.org/Graphics/SVG/1.1/DTD/svg11.dtd">
<svg version="1.1" id="Layer_1" xmlns="http://www.w3.org/2000/svg" xmlns:xlink="http://www.w3.org/1999/xlink" x="0px" y="0px"
	 width="102px" height="60px" viewBox="0 0 102 60" enable-background="new 0 0 102 60" xml:space="preserve">
<g>
	<path fill="#FFFFFF" d="M18.719,26.478c1.565-0.504,2.938-0.938,4.306-1.389c0.958-0.317,0.956-0.327,1.288-1.454
		c-0.372,0.063-0.695,0.103-1.012,0.172c-1.772,0.389-3.542,0.795-5.317,1.17c-0.473,0.1-0.634,0.311-0.662,0.807
		c-0.404,7.28-0.836,14.56-1.243,21.839c-0.026,0.466-0.186,0.713-0.604,0.904c-2.833,1.311-5.647,1.18-8.435-0.106
		c-0.221-0.103-0.426-0.459-0.458-0.72c-0.295-2.372,0.124-4.691,0.668-6.979c1.317-5.523,3.417-10.768,5.649-15.978
		c0.576-1.344,1.206-2.044,2.603-2.146c0.414-0.03,0.817-0.203,1.226-0.311c0.023-0.077,0.045-0.155,0.068-0.232
		c-0.288-0.116-0.579-0.338-0.863-0.328c-0.987,0.031-1.978,0.102-2.953,0.249c-0.289,0.043-0.575,0.353-0.784,0.604
		c-0.199,0.24-0.248,0.609-0.456,0.837c-0.168,0.185-0.528,0.4-0.71,0.337C7.716,22.597,4.416,21.4,0.891,20.131
		c1.448-0.571,2.697-1.072,3.953-1.556c5.277-2.034,10.556-4.068,15.836-6.094c6.502-2.495,13.009-4.978,19.51-7.474
		c3.363-1.292,6.713-2.618,10.086-3.882c0.425-0.159,1.013-0.172,1.433-0.014c6.016,2.275,12.018,4.588,18.018,6.9
		c6.475,2.495,12.942,5.002,19.416,7.498c3.609,1.391,7.226,2.769,10.836,4.155c0.316,0.122,0.627,0.261,1.129,0.473
		c-1.9,0.687-3.611,1.311-5.325,1.925c-4.548,1.629-9.076,3.312-13.649,4.865c-3.611,1.226-7.273,2.297-10.921,3.423
		c-6.526,2.015-13.056,4.027-19.595,6.009c-0.423,0.129-0.96,0.082-1.393-0.049c-6.817-2.074-13.627-4.168-20.434-6.272
		c-3.39-1.048-6.771-2.126-10.154-3.195C19.386,26.764,19.147,26.65,18.719,26.478z"/>
	<path fill="#FFFFFF" d="M21.117,30.759c1.237,0.373,2.383,0.712,3.525,1.063c7.343,2.262,14.685,4.527,22.027,6.791
		c0.561,0.173,1.149,0.281,1.679,0.523c1.808,0.822,3.527,0.618,5.394,0.008c5.576-1.828,11.212-3.479,16.822-5.205
		c3.187-0.98,6.369-1.976,9.555-2.959c0.247-0.076,0.505-0.121,0.854-0.201c0,0.377,0,0.668,0,0.955
		c0,4.596-0.037,9.189,0.014,13.783c0.035,3.043-1.559,5.141-3.813,6.846c-3.721,2.814-8.057,4.207-12.54,5.205
		c-6.44,1.434-12.964,1.723-19.518,1.17c-5.153-0.432-10.212-1.405-15.008-3.413c-2.796-1.171-5.434-2.63-7.399-5.046
		c-1.047-1.287-1.634-2.756-1.641-4.414c-0.019-4.889-0.006-9.776-0.004-14.665C21.063,31.098,21.087,30.993,21.117,30.759z"/>
</g>
</svg>
