<?xml version="1.0" encoding="utf-8"?>
<!-- Generator: Adobe Illustrator 16.0.0, SVG Export Plug-In . SVG Version: 6.00 Build 0)  -->
<!DOCTYPE svg PUBLIC "-//W3C//DTD SVG 1.1//EN" "http://www.w3.org/Graphics/SVG/1.1/DTD/svg11.dtd">
<svg version="1.1" id="Layer_1" xmlns="http://www.w3.org/2000/svg" xmlns:xlink="http://www.w3.org/1999/xlink" x="0px" y="0px"
	 width="39.685px" height="39.685px" viewBox="2.658 2.658 39.685 39.685" enable-background="new 2.658 2.658 39.685 39.685"
	 xml:space="preserve">
<g>
	<path fill-rule="evenodd" clip-rule="evenodd" fill="#FFFFFF" d="M24.344,14.498c-2.843-0.009-5.158,2.292-5.164,5.137
		c-0.004,2.836,2.29,5.144,5.125,5.155c2.843,0.011,5.159-2.293,5.166-5.136C29.477,16.817,27.179,14.508,24.344,14.498z
		 M24.312,22.217c-1.414-0.006-2.561-1.164-2.558-2.582c0.002-1.417,1.158-2.565,2.576-2.564c1.424,0.001,2.575,1.162,2.569,2.591
		C26.892,21.075,25.729,22.221,24.312,22.217z"/>
	<path fill-rule="evenodd" clip-rule="evenodd" fill="#FFFFFF" d="M39.508,6.336c0-1.268-0.621-1.962-1.89-1.963
		C30.252,4.368,22.884,4.304,15.52,4.419c-3.606,0.056-6.337,2.87-6.689,6.472c-0.072,0.731-0.126,1.464-0.193,2.231
		c-1.341,0.081-2.989-0.26-3.099,1.544c-0.13,2.149,1.843,1.627,3.106,1.93c0,1.426,0,2.767,0,4.147
		c-1.306,0.207-3.073-0.226-3.11,1.699c-0.04,2.021,1.78,1.619,3.082,1.79c0,1.459,0,2.835,0,4.197
		c-2.458,0.233-3.222,0.648-3.114,1.789c0.186,1.948,1.804,1.526,3.168,1.701c0.054,0.759,0.087,1.417,0.149,2.072
		c0.361,3.82,3.178,6.578,7.009,6.617c7.224,0.069,14.449,0.032,21.676,0.016c1.398-0.003,1.992-0.598,1.993-1.989
		C39.513,27.869,39.506,17.103,39.508,6.336z M31.499,22.59c-0.687,2-1.758,3.795-2.968,5.514c-0.94,1.339-1.973,2.605-3.083,3.808
		c-0.288,0.312-0.601,0.573-1.054,0.596c-0.427,0.02-0.778-0.144-1.051-0.454c-0.668-0.758-1.347-1.511-1.979-2.296
		c-1.351-1.68-2.552-3.459-3.488-5.406c-0.497-1.035-0.891-2.104-1.12-3.234c-0.726-3.58,1.265-7.275,4.656-8.624
		c0.726-0.29,1.475-0.479,2.255-0.537c0.045-0.003,0.09-0.021,0.135-0.033c0.348,0,0.697,0,1.045,0
		c0.454,0.079,0.92,0.116,1.359,0.241c3.143,0.9,5.063,2.955,5.716,6.159C32.221,19.783,31.974,21.203,31.499,22.59z"/>
</g>
</svg>
