<?xml version="1.0" encoding="utf-8"?>
<!-- Generator: Adobe Illustrator 16.0.0, SVG Export Plug-In . SVG Version: 6.00 Build 0)  -->
<!DOCTYPE svg PUBLIC "-//W3C//DTD SVG 1.1//EN" "http://www.w3.org/Graphics/SVG/1.1/DTD/svg11.dtd">
<svg version="1.1" id="Layer_1" xmlns="http://www.w3.org/2000/svg" xmlns:xlink="http://www.w3.org/1999/xlink" x="0px" y="0px"
	 width="97px" height="88px" viewBox="0 0 97 88" enable-background="new 0 0 97 88" xml:space="preserve">
<g>
	<path fill="#FFFFFF" d="M47.037,77.7c-5.75-2.298-11.289-4.896-17.074-6.712c-5.698-1.785-11.647-2.774-17.704-4.164
		c0-21.479,0-43.286,0-65.614c3.588,0.62,7.074,1.105,10.508,1.837c7.965,1.696,15.475,4.663,22.575,8.616
		c0.854,0.476,1.766,1.781,1.771,2.705c0.098,20.811,0.074,41.623,0.067,62.435C47.18,77.143,47.074,77.482,47.037,77.7z"/>
	<path fill="#FFFFFF" d="M49.339,77.762c0-2.92,0-5.736,0-8.552c0-17.885,0.054-35.771-0.063-53.654
		c-0.016-2.354,0.82-3.5,2.797-4.508c10.062-5.137,20.59-8.638,32.132-9.665c0,21.988,0,43.842,0,65.456
		c-6.019,1.38-12.052,2.388-17.836,4.192C60.669,72.813,55.221,75.396,49.339,77.762z"/>
	<path fill="#FFFFFF" d="M0.874,16.083c1.099-0.092,2.095-0.174,3.389-0.281c0,20.127,0,40.049,0,60.625
		c4.565,0,8.875-0.232,13.153,0.045c9.949,0.646,19.42,3.336,28.617,7.133c1.156,0.478,2.821,0.67,3.919,0.205
		c13.028-5.5,26.544-8.27,40.707-7.707c0.368,0.014,0.739-0.063,1.505-0.133c0-20.002,0-39.988,0-60.185
		c1.414,0.123,2.411,0.208,3.664,0.315c0,1.04,0,1.966,0,2.889c0,20.25,0.001,40.5-0.002,60.749c0,3.639-0.074,3.632-3.678,3.23
		c-13.596-1.518-27.041-1.063-40.301,2.764c-2.227,0.642-4.955,0.641-7.184,0.002c-13.45-3.86-27.078-4.354-40.853-2.643
		c-2.159,0.268-3.148-0.113-3.142-2.517C0.724,59.477,0.706,38.38,0.714,17.283C0.714,17.008,0.785,16.732,0.874,16.083z"/>
	<path fill="#FFFFFF" d="M9.903,69.203c10.905,0.824,21.104,2.988,30.223,8.054c5.813,3.229,10.351,3.31,16.21,0.03
		c9.096-5.092,19.303-7.268,30.032-8.061c0-20.139,0-40.141,0-60.333c1.313,0,2.309,0,3.53,0c0,21.513,0,43.119,0,65.246
		c-2.597,0-5.285-0.091-7.967,0.016C71.29,74.572,61.121,77.1,51.243,81.014c-1.466,0.578-3.496,0.996-4.829,0.443
		c-12.7-5.281-25.878-7.833-39.809-7.447c0-21.742,0-43.349,0-65.178c0.994-0.044,1.979-0.088,3.297-0.147
		C9.903,28.868,9.903,48.876,9.903,69.203z"/>
</g>
</svg>
