<?xml version="1.0" encoding="utf-8"?>
<!-- Generator: Adobe Illustrator 16.0.0, SVG Export Plug-In . SVG Version: 6.00 Build 0)  -->
<!DOCTYPE svg PUBLIC "-//W3C//DTD SVG 1.1//EN" "http://www.w3.org/Graphics/SVG/1.1/DTD/svg11.dtd">
<svg version="1.1" id="Layer_1" xmlns="http://www.w3.org/2000/svg" xmlns:xlink="http://www.w3.org/1999/xlink" x="0px" y="0px"
	 width="97px" height="88px" viewBox="0 0 97 88" enable-background="new 0 0 97 88" xml:space="preserve">
<g>
	<path fill-rule="evenodd" clip-rule="evenodd" fill="#FFFFFF" d="M48.474,3.366c13.288,0,26.577,0.057,39.862-0.037
		c3.629-0.026,6.344,2.437,6.328,6.31c-0.092,22.954-0.045,45.91-0.045,68.865c0,3.954-2.205,6.166-6.164,6.166
		c-26.649,0.002-53.3,0.002-79.95,0c-3.967,0-6.169-2.206-6.169-6.16c0-22.992,0-45.984,0-68.977c0-3.955,2.205-6.166,6.163-6.166
		C21.824,3.364,35.149,3.366,48.474,3.366z M7.947,18.245c0,20.347,0,40.556,0,60.735c27.083,0,54.081,0,81.057,0
		c0-20.297,0-40.503,0-60.735C61.945,18.245,34.977,18.245,7.947,18.245z M65.051,7.143c-1.955,0.019-3.646,1.704-3.65,3.635
		c-0.002,2.001,1.706,3.687,3.722,3.668c1.978-0.018,3.614-1.656,3.624-3.63C68.758,8.797,67.072,7.124,65.051,7.143z
		 M81.738,10.747c-0.018,2.037,1.629,3.701,3.66,3.7c1.961-0.002,3.631-1.637,3.68-3.604c0.049-1.968-1.688-3.705-3.695-3.699
		C83.395,7.15,81.756,8.771,81.738,10.747z M78.863,10.861c0.02-2.033-1.537-3.672-3.531-3.719
		c-2.047-0.048-3.701,1.575-3.709,3.645c-0.01,2.017,1.574,3.636,3.58,3.661C77.201,14.472,78.846,12.863,78.863,10.861z"/>
	<path fill-rule="evenodd" clip-rule="evenodd" fill="#FFFFFF" d="M40.935,35.812c0,1.8,0.047,3.442-0.038,5.078
		c-0.018,0.338-0.461,0.809-0.815,0.949c-4.049,1.605-8.12,3.159-12.183,4.729c-0.239,0.093-0.468,0.21-0.826,0.372
		c4.343,1.713,8.556,3.406,12.799,5.021c0.846,0.321,1.136,0.725,1.087,1.615c-0.081,1.444-0.021,2.896-0.021,4.479
		c-0.416-0.15-0.724-0.243-1.018-0.37c-6.083-2.634-12.161-5.283-18.254-7.895c-0.631-0.271-0.947-0.555-0.903-1.287
		c0.079-1.3-0.39-2.893,0.208-3.826c0.59-0.921,2.206-1.204,3.392-1.722c5.086-2.221,10.179-4.425,15.271-6.633
		C40.003,36.162,40.383,36.027,40.935,35.812z"/>
	<path fill-rule="evenodd" clip-rule="evenodd" fill="#FFFFFF" d="M56.023,58.023c0-1.777-0.043-3.483,0.043-5.183
		c0.014-0.274,0.551-0.62,0.914-0.765c4.012-1.604,8.037-3.175,12.059-4.757c0.238-0.094,0.473-0.202,0.896-0.384
		c-1.898-0.745-3.633-1.434-5.373-2.107c-2.57-0.995-5.137-1.999-7.719-2.957c-0.623-0.23-0.863-0.546-0.841-1.22
		c0.05-1.525,0.015-3.054,0.015-4.744c0.485,0.183,0.859,0.308,1.222,0.464c6.021,2.593,12.038,5.198,18.067,7.771
		c0.639,0.271,0.93,0.59,0.887,1.312c-0.064,1.079,0.025,2.166-0.043,3.244c-0.02,0.322-0.271,0.794-0.543,0.913
		c-6.34,2.796-12.696,5.554-19.053,8.313C56.43,57.979,56.28,57.978,56.023,58.023z"/>
	<path fill-rule="evenodd" clip-rule="evenodd" fill="#FFFFFF" d="M45.278,61.936c-1.585,0.007-2.305-0.841-1.93-2.49
		c1.066-4.685,2.185-9.358,3.305-14.031c0.947-3.948,1.898-7.896,2.903-11.831c0.423-1.657,1.227-2.184,2.605-1.922
		c1.211,0.229,1.793,1.075,1.497,2.413c-0.605,2.728-1.278,5.439-1.936,8.154c-1.421,5.865-2.838,11.731-4.286,17.591
		C47.031,61.469,46.499,61.93,45.278,61.936z"/>
</g>
</svg>
