<?xml version="1.0" encoding="utf-8"?>
<!-- Generator: Adobe Illustrator 16.0.0, SVG Export Plug-In . SVG Version: 6.00 Build 0)  -->
<!DOCTYPE svg PUBLIC "-//W3C//DTD SVG 1.1//EN" "http://www.w3.org/Graphics/SVG/1.1/DTD/svg11.dtd">
<svg version="1.1" id="Layer_1" xmlns="http://www.w3.org/2000/svg" xmlns:xlink="http://www.w3.org/1999/xlink" x="0px" y="0px"
	 width="97px" height="88px" viewBox="0 0 97 88" enable-background="new 0 0 97 88" xml:space="preserve">
<path fill-rule="evenodd" clip-rule="evenodd" fill="#FFFFFF" d="M94.025,42.213c-1.297-2.705-2.654-5.382-3.986-8.071
	c-1.531-3.091-3.087-6.172-4.583-9.279c-0.649-1.347-1.609-2.101-3.095-2.447c-0.335-0.079-0.668-0.164-1.003-0.244
	c3.284-0.941,5.774-4.031,5.726-7.547c-0.062-4.3-3.551-7.754-7.826-7.746c-4.279,0.009-7.781,3.496-7.806,7.771
	c-0.012,2.202,0.95,4.218,2.472,5.654c-1.268-0.32-2.537-0.635-3.811-0.931c-0.842-0.195-1.864-0.076-2.692,0.214
	c-1.915,0.672-3.757,1.555-5.646,2.31c-0.302,0.121-0.796,0.171-1.021,0.007c-1.87-1.355-3.698-2.769-5.626-4.23
	c1.015-1.95,2.082-3.834,2.979-5.797c0.476-1.04,0.866-2.204,0.917-3.328c0.097-2.085-1.437-3.929-3.447-4.527
	c-2.071-0.617-4.342,0.108-5.464,1.919c-0.979,1.581-1.803,3.258-2.647,4.919c-0.294,0.581-0.566,0.891-1.313,0.819
	c-1.415-0.136-2.472,0.563-3.105,1.807c-0.625,1.224-0.419,2.393,0.368,3.508c0.194,0.278,0.398,0.78,0.28,1.016
	c-2.456,4.825-4.958,9.626-7.507,14.544c-2.688-0.925-5.343-1.837-8.147-2.802c0.307-0.366,0.526-0.649,0.767-0.911
	c2.884-3.121,5.763-6.248,8.663-9.352c0.953-1.02,1.354-2.169,0.941-3.512c-0.733-2.386-3.705-3.09-5.517-1.278
	c-1.439,1.441-2.787,2.973-4.174,4.468c-3.504,3.781-6.954,7.614-10.518,11.337c-0.09-4.093-3.55-7.509-7.732-7.549
	c-4.308-0.042-7.905,3.508-7.893,7.793c0.014,4.26,3.532,7.771,7.802,7.785c1.139,0.003,2.219-0.246,3.197-0.687
	c-0.061,0.29-0.118,0.583-0.162,0.887c-0.885,5.937-2.023,11.836-3.006,17.757c-0.132,0.794-0.14,1.679,0.075,2.439
	c0.402,1.423,1.785,2.225,3.299,2.128c1.419-0.09,2.698-1.128,2.969-2.6c0.728-3.936,1.388-7.883,2.075-11.826
	c0.213-1.221,0.432-2.44,0.672-3.806c4.257,1.033,8.462,2.053,12.749,3.091c0,0.453,0,0.862,0,1.271
	c0,10.226-0.003,20.452,0.004,30.677c0.002,2.687,1.205,4.477,3.436,5.194c2.933,0.945,5.947-0.918,6.395-3.969
	c0.085-0.58,0.111-1.17,0.111-1.756c0.009-11.262-0.002-22.522,0.025-33.787c0.002-0.624,0.17-1.304,0.456-1.858
	c2.913-5.68,5.864-11.337,8.807-17.001c0.157-0.303,0.325-0.602,0.557-1.024c2.059,1.559,4.063,3.028,6.015,4.568
	c1.419,1.12,2.862,1.354,4.522,0.574c1.579-0.742,3.211-1.371,4.985-2.119c-0.595,2.807-1.144,5.431-1.706,8.051
	c-0.66,3.069-1.308,6.14-2.021,9.197c-0.132,0.561-0.453,1.161-0.862,1.561c-4.409,4.285-8.841,8.551-13.298,12.786
	c-1.249,1.188-1.916,2.57-1.984,4.286c-0.163,4.209-0.356,8.42-0.526,12.631c-0.079,1.988,0.66,3.59,2.393,4.622
	c1.644,0.979,3.355,0.995,5.021,0.048c1.365-0.776,2.285-1.962,2.395-3.549c0.249-3.615,0.373-7.241,0.616-10.858
	c0.035-0.548,0.307-1.206,0.695-1.585c3.777-3.694,7.602-7.345,11.413-11.004c0.273-0.262,0.555-0.51,0.924-0.851
	c0.115,0.324,0.215,0.559,0.283,0.806c1.368,4.988,2.71,9.983,4.113,14.963c0.296,1.052,0.719,2.09,1.239,3.052
	c1.889,3.487,3.851,6.939,5.772,10.41c1.104,1.989,2.737,3.136,5.054,2.917c3.473-0.33,5.5-3.897,3.976-7.046
	c-1.038-2.137-2.183-4.239-3.445-6.253c-2.168-3.462-3.555-7.196-4.535-11.144c-1.226-4.954-2.653-9.856-3.979-14.786
	c-0.104-0.389-0.198-0.831-0.123-1.213c0.759-3.788,1.552-7.568,2.342-11.351c0.021-0.098,0.08-0.187,0.2-0.443
	c0.213,0.406,0.379,0.712,0.532,1.023c1.979,3.986,3.943,7.979,5.932,11.959c0.891,1.782,2.43,2.567,4.026,2.109
	C94.082,46.43,95.016,44.274,94.025,42.213z"/>
</svg>
