<?xml version="1.0" encoding="utf-8"?>
<!-- Generator: Adobe Illustrator 16.0.0, SVG Export Plug-In . SVG Version: 6.00 Build 0)  -->
<!DOCTYPE svg PUBLIC "-//W3C//DTD SVG 1.1//EN" "http://www.w3.org/Graphics/SVG/1.1/DTD/svg11.dtd">
<svg version="1.1" id="Layer_1" xmlns="http://www.w3.org/2000/svg" xmlns:xlink="http://www.w3.org/1999/xlink" x="0px" y="0px"
	 width="76px" height="60px" viewBox="-18 0 76 60" enable-background="new -18 0 76 60" xml:space="preserve">
<g>
	<path fill-rule="evenodd" clip-rule="evenodd" fill="#FFFFFF" d="M-16.191,30.578c10.012,1.279,19.734,2.521,29.733,3.799
		c-0.152-0.184,0.023-0.068,0.02,0.038c-0.177,4.699,1.892,5.799,5.946,5.493c0.588-0.045,1.182-0.005,1.773-0.007
		c3.864-0.011,4.854-0.92,5.132-4.711c0.02-0.291,0.075-0.581,0.092-0.701c9.921-1.296,19.764-2.583,29.712-3.883
		c0,7.713,0.054,15.756-0.034,23.8c-0.027,2.437-1.956,4.231-4.388,4.498c-0.659,0.07-1.329,0.06-1.993,0.06
		c-19.795,0.003-39.588,0.005-59.384,0c-5.074,0-6.604-1.536-6.606-6.599c-0.004-6.499-0.002-12.999-0.002-19.498
		C-16.191,32.064-16.191,31.264-16.191,30.578z"/>
	<path fill-rule="evenodd" clip-rule="evenodd" fill="#FFFFFF" d="M32.253,9.166c-1.042,0-2.114,0-3.188-0.001
		c-0.094-0.111-0.267-0.222-0.267-0.332c0.021-4.384-0.954-3.892-4.538-3.943c-2.802-0.041-5.603-0.009-8.405-0.008
		c-4.208,0.001-4.208,0.002-4.613,4.25c-1.111,0-2.249,0-3.401,0C6.547,4.475,8.8,1.224,13.594,1.105
		C17.794,1.001,22,1.019,26.2,1.099C31.123,1.193,33.234,4.006,32.253,9.166z"/>
	<path fill-rule="evenodd" clip-rule="evenodd" fill="#FFFFFF" d="M56.226,15.637c-0.015-3.765-1.798-5.631-5.555-5.635
		C30.207,9.976,9.744,9.977-10.719,10c-3.583,0.004-5.423,1.891-5.46,5.498c-0.041,3.916,0.083,7.834-0.054,11.744l0.042,2.006
		c9.831,1.254,19.904,2.543,29.733,3.799c-0.123-0.149-0.032-0.101,0.005-0.021c0.4-4.097,1.428-4.944,5.446-4.955
		c1.034-0.004,2.07-0.027,3.103,0.007c2.716,0.092,3.9,1.152,4.289,3.784c0.054,0.354,0.119,0.709,0.224,1.285
		c9.887-1.294,19.695-2.574,29.607-3.87C56.217,29.503,56.245,20.207,56.226,15.637z"/>
</g>
</svg>
