<?xml version="1.0" encoding="utf-8"?>
<!-- Generator: Adobe Illustrator 16.0.0, SVG Export Plug-In . SVG Version: 6.00 Build 0)  -->
<!DOCTYPE svg PUBLIC "-//W3C//DTD SVG 1.1//EN" "http://www.w3.org/Graphics/SVG/1.1/DTD/svg11.dtd">
<svg version="1.1" id="Layer_1" xmlns="http://www.w3.org/2000/svg" xmlns:xlink="http://www.w3.org/1999/xlink" x="0px" y="0px"
	 width="97px" height="88px" viewBox="0 0 97 88" enable-background="new 0 0 97 88" xml:space="preserve">
<g>
	<path fill-rule="evenodd" clip-rule="evenodd" fill="#FFFFFF" d="M75.15,26.104c-3.493-1.612-6.976-3.252-10.484-4.831
		c-2.756-1.238-5.504-2.518-8.332-3.571c-0.516-0.192-1.037-0.37-1.558-0.551c3.053-0.868,5.362-3.72,5.349-6.989
		c-0.015-3.943-3.348-7.264-7.273-7.245c-3.957,0.019-7.256,3.329-7.245,7.268c0.004,1.697,0.624,3.274,1.639,4.522
		c-0.171-0.055-0.342-0.108-0.513-0.164c-2.186-0.71-4.339-1.555-6.566-2.093c-3.074-0.744-6.188-1.368-9.316-1.834
		c-2.656-0.397-4.899-1.388-6.891-3.214c-1.775-1.629-3.726-3.078-5.679-4.496c-1.579-1.147-3.708-0.669-4.826,0.923
		c-1.081,1.54-0.859,3.555,0.655,4.793c2.999,2.452,6.037,4.86,9.093,7.241c0.501,0.391,1.156,0.645,1.781,0.804
		c1.278,0.324,2.584,0.543,3.88,0.801c3.615,0.719,7.229,1.437,10.884,2.163c0.012,0.131,0.026,0.2,0.024,0.267
		c-0.2,7.954-0.4,15.908-0.605,23.861c-0.004,0.181,0.009,0.396-0.08,0.535c-0.75,1.16-1.521,2.305-2.294,3.465
		c-3.637-2.004-7.185-3.966-10.738-5.917c-2.096-1.149-4.168-2.351-6.314-3.401c-1.889-0.925-4.194-0.232-5.43,1.454
		c-1.711,2.335-0.988,5.4,1.656,6.873c3.861,2.149,7.735,4.276,11.607,6.404c2.934,1.613,5.848,3.266,8.822,4.802
		c1.866,0.964,4.114,0.387,5.412-1.272c0.713-0.914,1.325-1.908,1.978-2.869c0.607-0.895,1.209-1.792,1.848-2.742
		c0.203,0.255,0.348,0.427,0.482,0.604c1.633,2.165,3.269,4.329,4.893,6.501c0.352,0.472,0.75,0.939,0.974,1.474
		c2.292,5.483,4.553,10.979,6.82,16.471c0.921,2.231,1.817,4.473,2.767,6.692c0.768,1.795,2.156,2.831,4.116,2.891
		c1.952,0.062,3.419-0.857,4.289-2.616c0.672-1.354,0.525-2.725-0.041-4.097c-2.998-7.236-6.004-14.47-8.951-21.727
		c-0.72-1.771-1.633-3.39-2.817-4.887c-1.441-1.822-2.816-3.699-4.187-5.577c-0.185-0.254-0.289-0.671-0.237-0.98
		c0.987-5.979,2.004-11.952,3.016-17.927c0.124-0.732,0.263-1.463,0.401-2.233c0.232,0.098,0.381,0.153,0.524,0.22
		c2.934,1.357,5.866,2.719,8.803,4.072c2.088,0.963,4.148,1.993,6.28,2.85c2.021,0.814,4.21-0.442,4.712-2.552
		C77.881,28.579,76.964,26.941,75.15,26.104z"/>
	<path fill-rule="evenodd" clip-rule="evenodd" fill="#FFFFFF" d="M73.092,72.729c0.015-3.079,2.509-5.557,5.584-5.546
		c3.09,0.013,5.556,2.495,5.543,5.578c-0.013,3.081-2.521,5.578-5.576,5.559C75.572,78.299,73.077,75.786,73.092,72.729z"/>
</g>
</svg>
