<?xml version="1.0" encoding="utf-8"?>
<!-- Generator: Adobe Illustrator 16.0.0, SVG Export Plug-In . SVG Version: 6.00 Build 0)  -->
<!DOCTYPE svg PUBLIC "-//W3C//DTD SVG 1.1//EN" "http://www.w3.org/Graphics/SVG/1.1/DTD/svg11.dtd">
<svg version="1.1" id="Layer_1" xmlns="http://www.w3.org/2000/svg" xmlns:xlink="http://www.w3.org/1999/xlink" x="0px" y="0px"
	 width="39.685px" height="39.685px" viewBox="2.658 2.658 39.685 39.685" enable-background="new 2.658 2.658 39.685 39.685"
	 xml:space="preserve">
<g>
	<path fill-rule="evenodd" clip-rule="evenodd" fill="#FFFFFF" d="M39.508,6.336c0-1.269-0.621-1.962-1.89-1.963
		c-7.367-0.006-14.734-0.069-22.099,0.046c-3.605,0.057-6.337,2.869-6.689,6.472c-0.071,0.731-0.127,1.464-0.192,2.231
		c-1.341,0.08-2.989-0.26-3.099,1.543c-0.131,2.149,1.843,1.628,3.106,1.93c0,1.425,0,2.767,0,4.148
		c-1.305,0.207-3.073-0.226-3.111,1.698c-0.039,2.022,1.781,1.62,3.083,1.792c0,1.458,0,2.835,0,4.196
		c-2.458,0.232-3.223,0.648-3.114,1.789c0.185,1.948,1.804,1.526,3.167,1.701c0.054,0.758,0.088,1.416,0.149,2.072
		c0.361,3.819,3.177,6.577,7.008,6.616c7.224,0.071,14.45,0.033,21.675,0.017c1.399-0.004,1.994-0.598,1.995-1.989
		C39.513,27.869,39.506,17.103,39.508,6.336z M32.89,28.639c-0.82,1.384-2.082,2.168-3.659,2.422
		c-1.179,0.189-2.317,0.034-3.382-0.532c-0.16-0.086-0.311-0.108-0.484-0.086c-0.797,0.102-1.596,0.089-2.389-0.023
		c-1.523-0.218-2.914-0.783-4.114-1.742c-2.346-1.874-3.439-4.297-3.074-7.318c0.017-0.14-0.02-0.237-0.084-0.353
		c-0.165-0.294-0.345-0.587-0.459-0.902c-0.124-0.337-0.181-0.698-0.268-1.05c0-0.242,0-0.483,0-0.727
		c0.011-0.047,0.025-0.093,0.031-0.141c0.166-1.347,0.793-2.446,1.892-3.223c1.863-1.316,3.848-1.437,5.902-0.446
		c0.076,0.037,0.174,0.061,0.255,0.052c0.736-0.087,1.474-0.107,2.211-0.024c2.352,0.263,4.337,1.249,5.86,3.072
		c1.413,1.689,1.986,3.639,1.671,5.835c-0.016,0.106,0.024,0.238,0.08,0.334C33.834,25.404,33.841,27.034,32.89,28.639z"/>
	<path fill-rule="evenodd" clip-rule="evenodd" fill="#FFFFFF" d="M26.251,21.614c-0.747-0.201-1.507-0.354-2.261-0.529
		c-0.488-0.113-0.979-0.222-1.423-0.471c-0.658-0.366-0.547-1.022-0.125-1.358c0.166-0.133,0.367-0.235,0.566-0.31
		c0.518-0.194,1.06-0.17,1.598-0.137c0.72,0.044,1.208,0.439,1.566,1.033c0.08,0.135,0.173,0.264,0.269,0.389
		c0.345,0.455,0.951,0.588,1.443,0.318c0.499-0.272,0.659-0.73,0.438-1.323c-0.226-0.605-0.694-0.995-1.238-1.299
		c-0.887-0.497-1.857-0.629-2.857-0.633c-0.296,0.018-0.593,0.029-0.887,0.056c-0.786,0.069-1.538,0.262-2.225,0.661
		c-0.421,0.244-0.781,0.563-1.002,1c-0.572,1.137-0.177,2.416,0.926,3.058c0.533,0.311,1.112,0.506,1.705,0.653
		c0.833,0.207,1.674,0.377,2.507,0.588c0.258,0.065,0.517,0.18,0.74,0.327c0.857,0.562,0.68,1.438,0.23,1.837
		c-0.208,0.185-0.457,0.343-0.715,0.449c-0.633,0.259-1.302,0.251-1.968,0.154c-0.574-0.082-1.036-0.362-1.336-0.87
		c-0.155-0.266-0.299-0.539-0.434-0.814c-0.343-0.708-1.138-0.938-1.75-0.497c-0.211,0.152-0.337,0.36-0.359,0.625
		c-0.025,0.308,0.028,0.604,0.154,0.884c0.351,0.782,0.921,1.353,1.688,1.73c0.734,0.362,1.522,0.514,2.333,0.547
		c1.147,0.048,2.277-0.041,3.318-0.59c1.057-0.559,1.74-1.375,1.761-2.629c0.01-0.643-0.125-1.239-0.582-1.724
		C27.762,22.136,27.027,21.824,26.251,21.614z"/>
</g>
</svg>
