<?xml version="1.0" encoding="utf-8"?>
<!-- Generator: Adobe Illustrator 16.0.0, SVG Export Plug-In . SVG Version: 6.00 Build 0)  -->
<!DOCTYPE svg PUBLIC "-//W3C//DTD SVG 1.1//EN" "http://www.w3.org/Graphics/SVG/1.1/DTD/svg11.dtd">
<svg version="1.1" id="Layer_1" xmlns="http://www.w3.org/2000/svg" xmlns:xlink="http://www.w3.org/1999/xlink" x="0px" y="0px"
	 width="39.685px" height="39.685px" viewBox="2.658 2.658 39.685 39.685" enable-background="new 2.658 2.658 39.685 39.685"
	 xml:space="preserve">
<path fill-rule="evenodd" clip-rule="evenodd" fill="#FFFFFF" d="M8.67,31.92c-1.363-0.174-2.982,0.247-3.167-1.701
	c-0.108-1.141,0.656-1.557,3.114-1.789c0-1.361,0-2.738,0-4.195c-1.302-0.173-3.122,0.229-3.083-1.792
	c0.038-1.924,1.806-1.491,3.111-1.699c0-1.38,0-2.722,0-4.147c-1.263-0.302-3.237,0.219-3.106-1.93
	c0.109-1.804,1.757-1.463,3.099-1.544c0.065-0.767,0.121-1.5,0.192-2.231c0.352-3.603,3.083-6.416,6.689-6.472
	c7.365-0.116,14.732-0.052,22.099-0.046c1.269,0.001,1.89,0.695,1.89,1.963c-0.002,10.767,0.005,21.533-0.01,32.3
	c-0.001,1.392-0.596,1.985-1.995,1.988c-7.226,0.017-14.451,0.055-21.675-0.017c-3.831-0.038-6.647-2.796-7.008-6.615
	C8.758,33.337,8.724,32.678,8.67,31.92z M26.968,20.855c-1.53,1.515-2.994,2.962-4.51,4.463c-0.621-0.593-1.332-1.272-1.945-1.858
	c-1.157,1.081-2.279,2.129-3.607,3.368c0.655,0.559,1.321,1.026,1.863,1.609c1.055,1.134,2.348,1.465,3.743,1.026
	c4.413-1.388,7.333-4.319,8.634-8.776c0.367-1.258,0.045-2.413-0.915-3.379c-0.63-0.632-1.189-1.333-1.63-1.835
	c-1.305,1.198-2.436,2.236-3.605,3.311C25.707,19.532,26.38,20.239,26.968,20.855z"/>
</svg>
