<?xml version="1.0" encoding="utf-8"?>
<!-- Generator: Adobe Illustrator 16.0.0, SVG Export Plug-In . SVG Version: 6.00 Build 0)  -->
<!DOCTYPE svg PUBLIC "-//W3C//DTD SVG 1.1//EN" "http://www.w3.org/Graphics/SVG/1.1/DTD/svg11.dtd">
<svg version="1.1" id="Layer_1" xmlns="http://www.w3.org/2000/svg" xmlns:xlink="http://www.w3.org/1999/xlink" x="0px" y="0px"
	 width="45px" height="45px" viewBox="0 0 45 45" enable-background="new 0 0 45 45" xml:space="preserve">
<g>
	<path fill="#FFFFFF" d="M22.5,0.5c-12.131,0-22,9.869-22,22s9.869,22,22,22c12.13,0,22-9.869,22-22S34.631,0.5,22.5,0.5z
		 M22.5,43.063c-8.232,0-15.313-4.849-18.599-11.836c-0.019-0.037-0.038-0.076-0.056-0.115c-0.169-0.363-0.329-0.731-0.477-1.107
		C3.366,30,3.366,29.996,3.364,29.993c-0.27-0.688-0.498-1.392-0.693-2.11c-0.049-0.18-0.096-0.357-0.139-0.541
		c-0.121-0.494-0.22-0.996-0.304-1.506c-0.044-0.271-0.09-0.539-0.124-0.813c-0.039-0.316-0.066-0.639-0.091-0.959
		c-0.021-0.277-0.033-0.559-0.042-0.838c-0.008-0.244-0.037-0.479-0.037-0.726c0-11.356,9.206-20.563,20.563-20.563
		c11.354,0,20.563,9.206,20.563,20.563c0,0.227-0.026,0.446-0.035,0.671c-0.01,0.309-0.021,0.612-0.045,0.915
		c-0.022,0.31-0.051,0.614-0.088,0.918c-0.041,0.331-0.096,0.658-0.149,0.983c-0.076,0.445-0.166,0.886-0.271,1.32
		c-0.051,0.203-0.102,0.404-0.156,0.605c-0.18,0.658-0.391,1.305-0.633,1.936c-0.021,0.057-0.039,0.114-0.063,0.172
		c-0.143,0.361-0.297,0.717-0.461,1.069c-0.029,0.065-0.063,0.13-0.094,0.194c-0.328,0.691-0.691,1.361-1.092,2.008
		c-0.011,0.016-0.021,0.031-0.027,0.047C36.318,39.17,29.871,43.063,22.5,43.063z"/>
	<circle fill="#FFFFFF" cx="12.48" cy="22.479" r="2.479"/>
	<circle fill="#FFFFFF" cx="32.519" cy="22.479" r="2.479"/>
	<circle fill="#FFFFFF" cx="22.5" cy="22.479" r="2.479"/>
</g>
</svg>
