<?xml version="1.0" encoding="utf-8"?>
<!-- Generator: Adobe Illustrator 16.0.0, SVG Export Plug-In . SVG Version: 6.00 Build 0)  -->
<!DOCTYPE svg PUBLIC "-//W3C//DTD SVG 1.1//EN" "http://www.w3.org/Graphics/SVG/1.1/DTD/svg11.dtd">
<svg version="1.1" id="Layer_1" xmlns="http://www.w3.org/2000/svg" xmlns:xlink="http://www.w3.org/1999/xlink" x="0px" y="0px"
	 width="39.685px" height="39.685px" viewBox="2.658 2.658 39.685 39.685" enable-background="new 2.658 2.658 39.685 39.685"
	 xml:space="preserve">
<g>
	<path fill-rule="evenodd" clip-rule="evenodd" fill="#FFFFFF" d="M8.604,13.101c0.112-1.174,0.11-2.229,0.328-3.235
		c0.655-3.017,3.317-5.406,6.454-5.454c7.421-0.113,14.844-0.065,22.266-0.045c1.359,0.004,1.851,0.669,1.852,2.277
		c0.008,6.666,0.004,13.332,0.004,19.996c0,3.782,0.002,7.564-0.001,11.346c-0.002,2.257-0.405,2.672-2.611,2.672
		c-6.761,0.004-13.521,0.008-20.28-0.001c-4.838-0.006-7.666-2.71-7.906-7.53c-0.019-0.373-0.045-0.744-0.07-1.156
		c-1.263-0.273-3.143,0.282-3.143-1.773c0-1.954,1.773-1.528,3.1-1.76c0-1.349,0-2.694,0-4.126c-1.189-0.344-3.186,0.247-3.1-1.899
		c0.073-1.831,1.719-1.507,3.077-1.632c0-1.375,0-2.752,0-4.205c-1.239-0.259-3.115,0.218-3.076-1.811
		C5.533,12.837,7.27,13.227,8.604,13.101z M27.208,25.983c0.986,0.948,2.111,1.413,3.456,0.764c1.351-0.651,1.619-1.869,1.6-3.209
		c-0.009-0.612-0.05-1.225-0.109-1.835c-0.467-4.765-4.708-7.95-9.532-7.167c-4.465,0.724-7.476,5.37-6.396,9.871
		c0.834,3.482,4.063,6.171,7.538,6.172c0.424,0,0.848-0.512,1.271-0.786c-0.331-0.368-0.626-0.783-1.008-1.087
		c-0.192-0.153-0.545-0.103-0.824-0.15c-3.465-0.594-5.776-3.782-5.144-7.091c0.678-3.54,4.033-5.792,7.494-4.906
		c3.798,0.973,5.066,4.207,4.654,7.664c-0.035,0.296-0.521,0.539-0.797,0.807c-0.236-0.312-0.614-0.597-0.679-0.94
		c-0.12-0.64-0.013-1.32-0.079-1.975c-0.2-1.98-1.563-3.55-3.454-4.036c-1.742-0.447-3.659,0.261-4.757,1.758
		c-1.062,1.447-1.141,3.527-0.192,5.067C21.674,27.212,24.266,27.623,27.208,25.983z"/>
	<path fill-rule="evenodd" clip-rule="evenodd" fill="#FFFFFF" d="M26.684,22.492c0.008,1.351-1.155,2.534-2.52,2.561
		c-1.379,0.028-2.541-1.082-2.579-2.465c-0.041-1.453,1.119-2.649,2.555-2.634C25.502,19.967,26.676,21.138,26.684,22.492z"/>
</g>
</svg>
