<?xml version="1.0" encoding="utf-8"?>
<!-- Generator: Adobe Illustrator 16.0.0, SVG Export Plug-In . SVG Version: 6.00 Build 0)  -->
<!DOCTYPE svg PUBLIC "-//W3C//DTD SVG 1.1//EN" "http://www.w3.org/Graphics/SVG/1.1/DTD/svg11.dtd">
<svg version="1.1" id="Layer_1" xmlns="http://www.w3.org/2000/svg" xmlns:xlink="http://www.w3.org/1999/xlink" x="0px" y="0px"
	 width="117.75px" height="88px" viewBox="-11 0 117.75 88" enable-background="new -11 0 117.75 88" xml:space="preserve">
<g>
	<path fill-rule="evenodd" clip-rule="evenodd" fill="#FFFFFF" d="M43.311,31.455c0.198,0.208,0.711,0.513,0.765,0.884
		c0.038,0.259-0.538,0.627-0.872,0.908c-0.104,0.087-0.328,0.014-0.476,0.069c-0.64,0.243-1.371,0.51-1.598-0.405
		c-0.229-0.925,0.625-1.096,1.271-1.326C42.587,31.518,42.801,31.523,43.311,31.455z"/>
	<path fill-rule="evenodd" clip-rule="evenodd" fill="#FFFFFF" d="M35.35,39.392c0.211,0.206,0.523,0.51,0.837,0.815
		c-0.323,0.325-0.626,0.674-0.979,0.964c-0.137,0.113-0.395,0.152-0.58,0.121c-0.484-0.08-0.96-0.218-1.439-0.332
		c0.313-0.442,0.575-0.938,0.96-1.304C34.348,39.467,34.765,39.508,35.35,39.392z"/>
	<path fill-rule="evenodd" clip-rule="evenodd" fill="#FFFFFF" d="M104.968,17.39c-0.435-0.72-1.279-1.238-2.444-1.354
		c-0.745-0.074-1.595,0.036-2.273,0.337c-2.729,1.21-5.429,2.488-8.093,3.833c-0.717,0.362-1.188,0.366-1.889-0.031
		c-4.168-2.359-8.362-4.674-12.584-6.937c-0.447-0.239-1.193-0.213-1.686-0.019c-1.162,0.461-3.276,1.601-4.522,2.23l11.793,9.86
		c-1.458,0.811-2.773,1.543-4.09,2.274c-0.824,0.457-1.651,0.917-2.462,1.381c-4.66,2.667-5.451,2.375-8.736,1.591
		c-1.475-0.353-3.828,0.689-5.393,1.328c1.513,0.862,3.46,2.033,5.001,2.841c1.176,0.616,1.781,0.945,2.048,1.418
		c0.242,0.486,0.173,1.167,0.024,2.486c-0.194,1.729-0.316,3.998-0.45,5.734c1.406-0.938,3.588-2.303,4.122-3.722
		c1.192-3.161,1.394-3.979,6.214-6.343c0.839-0.411,1.684-0.839,2.524-1.265c1.342-0.681,2.687-1.359,4.175-2.113l1.557,15.293
		c1.22-0.68,3.348-1.792,4.382-2.496c0.438-0.298,0.877-0.901,0.93-1.406c0.491-4.764,0.926-9.535,1.308-14.31
		c0.064-0.802,0.331-1.19,1.033-1.581c2.606-1.453,5.178-2.973,7.71-4.554c0.63-0.394,1.197-1.036,1.553-1.693
		C105.276,19.144,105.319,18.154,104.968,17.39z"/>
	<path fill-rule="evenodd" clip-rule="evenodd" fill="#FFFFFF" d="M78.521,36.061c-3.263,1.99-3.706,3.399-4.971,6.752
		c-0.725,1.924-3.683,3.776-5.591,5.047c0.047-0.595,0.091-1.236,0.137-1.9c-0.567,0.101-1.087,0.091-1.492-0.069
		c-0.151-0.061-0.323-0.118-0.432-0.229c-0.497-0.509-0.97-0.385-1.535-0.077c-2.661,1.447-5.343,2.855-8.013,4.285
		c-0.301,0.161-0.577,0.369-0.977,0.629c0.379,0.249,0.59,0.452,0.842,0.541c1.171,0.414,1.275,1.232,0.934,2.268
		c-0.359,1.085-1.169,1.439-2.207,1.326c-2.394-0.262-4.126,0.881-5.459,2.668c-1.344,1.801-2.504,3.738-3.798,5.578
		c-2.169,3.084-2.463,6.153-0.384,9.462c1.064,1.693,1.602,3.636,1.649,5.717c0.025,1.144-0.439,1.454-1.402,1.648
		c-5.167,1.044-10.331,1.079-15.481-0.038c-3.526-0.765-6.886-1.998-10.118-3.905c0.459-0.347,0.808-0.612,1.16-0.875
		c2.405-1.793,4.357-3.985,5.622-6.713c0.362-0.782,0.639-1.765,0.505-2.581c-0.209-1.271,0.264-2.06,1.279-2.471
		c0.875-0.355,1.878-0.391,2.822-0.58c0.747-0.149,1.545-0.205,2.212-0.525c0.357-0.172,0.487-0.816,0.72-1.247
		c-0.442,0.006-0.928-0.106-1.321,0.035c-4.001,1.441-7.961,3.002-11.992,4.352c-1.263,0.422-1.708,1.018-1.817,2.274
		c-0.209,2.415-0.582,4.816-0.929,7.564c-2.11-1.774-4.038-3.409-5.984-5.02c-0.325-0.269-0.793-0.679-1.095-0.605
		c-1.968,0.474-3.908,1.063-5.873,1.62c10.393,13.601,32.234,20.811,51.742,10.895c10.13-5.148,17.133-13.175,20.95-23.865
		c2.592-7.259,3.167-14.717,1.563-22.583C79.366,35.666,78.94,35.868,78.521,36.061z"/>
	<path fill-rule="evenodd" clip-rule="evenodd" fill="#FFFFFF" d="M-0.309,62.649c-0.899,0.146-1.881,0.153-2.809,0.058
		c-1.558-0.162-2.117-1.161-1.519-2.607c0.263-0.637,0.639-1.227,0.963-1.838c-1.651,0.812-3.035,1.917-3.938,3.515
		c-0.93,1.645-0.755,3.272,0.613,4.604c1.784,1.733,3.878,2.809,6.458,2.841c6.381,0.079,12.393-1.662,18.282-3.818
		c17.469-6.396,33.519-15.58,49.255-25.356c0.117-0.073,0.832-0.537,1.696-1.112c0.1-1.068,0.094-1.722-0.156-2.222
		c-0.361-0.642-1.183-1.088-2.776-1.923c-0.281-0.147-0.574-0.305-0.873-0.469c-0.459,0.291-0.902,0.595-1.218,0.81
		c-2.065,1.404-4.148,2.788-6.294,4.064C39.333,49.923,14.773,60.192-0.309,62.649"/>
	<path fill-rule="evenodd" clip-rule="evenodd" fill="#FFFFFF" d="M58.979,30.936c2.122-0.867,5.313-2.279,7.313-1.801
		c4.276,1.021,5.439,1.424,11.114-1.744c-1.014-2.456-2.524-5.503-3.942-7.595c-0.198-0.262-2.764-3.627-3.942-4.924
		C61.136,6.022,50.734,1.5,38.436,1.504C22.962,1.509,10.937,8.252,2.342,21.04c-4.227,6.289-6.337,13.357-6.724,20.91
		c-0.324,6.309,0.785,12.396,3.22,18.229c0.127,0.304,0.681,0.712,0.913,0.645c1.676-0.483,3.321-1.076,4.993-1.641
		c-0.693-2.055-1.427-3.877-1.911-5.764c-0.485-1.895-0.852-3.842-1.029-5.789c-0.172-1.891-0.038-3.809-0.038-5.389
		c1.137,0.946,2.273,2.124,3.624,2.953c1.504,0.926,2.496,2.063,2.815,3.795c0.111,0.603,0.254,1.203,0.433,1.788
		c0.628,2.054,1.379,4.032,3.188,5.403c0.582,0.44,1.094,0.557,1.794,0.248c1.833-0.812,3.702-1.543,5.552-2.318
		c0.299-0.125,0.573-0.313,1.065-0.588c-0.669-0.181-1.066-0.267-1.45-0.395c-1.277-0.428-2.582-0.799-3.804-1.35
		c-0.401-0.181-0.877-0.894-0.815-1.283c0.289-1.826,3.028-3.081,4.607-2.209c1.815,1,4.119,0.482,5.063-1.248
		c0.604-1.106,1.163-2.277,1.488-3.487c0.484-1.801,1.41-2.804,3.36-2.986c2.354-0.22,3.459-2.145,2.849-4.406
		c-0.304-1.125-0.461-2.314-0.493-3.48c-0.035-1.25-0.392-2.219-1.473-2.91c-0.598-0.382-1.136-0.859-1.915-1.458
		c1.797-0.999,3.332-1.853,4.637-2.578c-1.403-1.75-2.812-3.275-3.949-4.98c-1.451-2.176-3.307-3.615-5.899-4.002
		c-2.449-0.365-4.91-0.661-7.448-0.999c0.274-0.239,0.535-0.543,0.861-0.739c2.519-1.52,4.971-3.179,7.598-4.486
		c3.781-1.882,4.641-1.375,6.046,2.681c0.292,0.842,0.867,1.693,1.543,2.268c0.889,0.757,1.941,1.434,3.038,1.812
		c2.81,0.969,5.236,2.4,7.015,4.833c0.236,0.323,0.6,0.557,0.919,0.813c2.524,2.021,3.501,1.702,4.346-1.403
		c0.755-2.774,1.802-5.425,4.287-7.099c1.286-0.866,1.535-1.905,1.287-3.259c-0.056-0.302-0.103-0.606-0.185-1.097
		c6.197,2.552,11.186,6.353,14.986,11.207c-0.923,1.244-1.77,2.255-2.469,3.36c-0.823,1.302-1.673,1.753-3.173,1.275
		c-0.969-0.309-1.879-0.798-2.821-1.194c-2.864-1.204-5.134,0.318-4.872,3.39c0.296,3.487-0.253,3.468-2.836,4.246
		c0.672,0.92,1.175,1.28,2.47,1.208c1.955-0.109,3.902-0.39,5.852-0.607c0.154-0.018,0.331-0.073,0.444-0.171
		c0.381-0.33,0.76-0.661,1.138-0.993C59.95,31.495,59.448,31.204,58.979,30.936z"/>
</g>
</svg>
