<?xml version="1.0" encoding="utf-8"?>
<!-- Generator: Adobe Illustrator 16.0.0, SVG Export Plug-In . SVG Version: 6.00 Build 0)  -->
<!DOCTYPE svg PUBLIC "-//W3C//DTD SVG 1.1//EN" "http://www.w3.org/Graphics/SVG/1.1/DTD/svg11.dtd">
<svg version="1.1" id="Layer_1" xmlns="http://www.w3.org/2000/svg" xmlns:xlink="http://www.w3.org/1999/xlink" x="0px" y="0px"
	 width="39.685px" height="39.685px" viewBox="2.658 2.658 39.685 39.685" enable-background="new 2.658 2.658 39.685 39.685"
	 xml:space="preserve">
<g>
	<path fill-rule="evenodd" clip-rule="evenodd" fill="#FFFFFF" d="M22.708,27.387c0.223,0.191,0.496,0.323,0.748,0.479
		c0.038,0.024,0.087,0.032,0.141,0.05c0-0.877,0-1.737,0-2.602c-0.78-0.053-1.549-0.104-2.33-0.156
		C21.6,26.002,22.013,26.789,22.708,27.387z"/>
	<path fill-rule="evenodd" clip-rule="evenodd" fill="#FFFFFF" d="M19.625,23.641c-0.166-0.987-0.213-1.97-0.146-2.965
		c-0.721-0.162-1.416-0.363-2.088-0.685c-0.179,0.779-0.224,1.545-0.136,2.316c0.052,0.458,0.059,0.459,0.467,0.686
		c0.576,0.318,1.2,0.501,1.836,0.652C19.577,23.649,19.598,23.643,19.625,23.641z"/>
	<path fill-rule="evenodd" clip-rule="evenodd" fill="#FFFFFF" d="M20.666,20.937c-0.046,0.966,0.013,1.925,0.215,2.873
		c0.009,0.038,0.069,0.091,0.11,0.095c0.68,0.065,1.36,0.128,2.04,0.184c0.186,0.015,0.374,0.002,0.562,0.002
		c0-0.986,0-1.972,0-2.937c-0.979-0.078-1.947-0.155-2.92-0.233C20.673,20.913,20.667,20.924,20.666,20.937z"/>
	<path fill-rule="evenodd" clip-rule="evenodd" fill="#FFFFFF" d="M23.594,19.935c0-1.593,0-3.167,0-4.752
		c-0.055,0.02-0.1,0.034-0.144,0.052c-0.452,0.187-0.817,0.489-1.126,0.859c-0.872,1.043-1.284,2.281-1.527,3.612
		C21.738,19.846,22.664,19.914,23.594,19.935z"/>
	<path fill-rule="evenodd" clip-rule="evenodd" fill="#FFFFFF" d="M20.283,17.184c0.313-0.734,0.716-1.413,1.245-2.015
		c-1.729,0.731-2.981,1.949-3.767,3.674c0.595,0.312,1.214,0.498,1.857,0.643C19.76,18.684,19.969,17.918,20.283,17.184z"/>
	<path fill-rule="evenodd" clip-rule="evenodd" fill="#FFFFFF" d="M19.811,24.913c-0.312-0.071-0.625-0.132-0.933-0.217
		c-0.353-0.097-0.698-0.215-1.061-0.327c0.369,0.816,0.877,1.524,1.517,2.14c0.619,0.596,1.837,1.376,2.196,1.405
		c-0.76-0.842-1.241-1.829-1.575-2.896C19.929,24.934,19.874,24.928,19.811,24.913z"/>
	<path fill-rule="evenodd" clip-rule="evenodd" fill="#FFFFFF" d="M39.508,6.336c0-1.269-0.621-1.962-1.89-1.963
		c-7.367-0.006-14.734-0.069-22.099,0.046c-3.605,0.057-6.337,2.869-6.689,6.472c-0.071,0.731-0.127,1.464-0.192,2.231
		c-1.341,0.08-2.989-0.26-3.099,1.543c-0.131,2.149,1.843,1.628,3.106,1.93c0,1.425,0,2.767,0,4.148
		c-1.305,0.207-3.073-0.226-3.111,1.698c-0.039,2.022,1.781,1.62,3.083,1.792c0,1.458,0,2.835,0,4.196
		c-2.458,0.232-3.223,0.648-3.114,1.789c0.185,1.948,1.804,1.526,3.167,1.701c0.054,0.758,0.088,1.416,0.149,2.072
		c0.361,3.819,3.177,6.577,7.008,6.616c7.224,0.071,14.45,0.033,21.675,0.017c1.399-0.004,1.994-0.598,1.995-1.989
		C39.513,27.869,39.506,17.103,39.508,6.336z M26.322,29.781c-4.25,1.093-8.688-1.229-10.197-5.335
		c-0.271-0.735-0.435-1.494-0.489-2.276c-0.003-0.043-0.015-0.084-0.022-0.126c0-0.333,0-0.666,0-0.999
		c0.008-0.038,0.02-0.076,0.022-0.114c0.037-0.534,0.127-1.06,0.267-1.576c0.881-3.26,3.638-5.688,6.962-6.196
		c0.271-0.042,0.544-0.069,0.817-0.103c0.342,0,0.684,0,1.025,0c0.277,0.034,0.556,0.063,0.832,0.103
		c3.304,0.468,6.132,2.997,6.973,6.238c0.427,1.65,0.368,3.285-0.182,4.899c-0.015,0.045-0.031,0.09-0.053,0.15
		c-0.779-0.333-1.549-0.661-2.333-0.996c0.275-0.098,0.531-0.201,0.795-0.275c0.229-0.064,0.318-0.196,0.354-0.428
		c0.131-0.844,0.132-1.683-0.029-2.521c-0.004-0.017-0.011-0.033-0.019-0.059c-0.03,0.007-0.058,0.012-0.085,0.019
		c-0.638,0.173-1.273,0.348-1.912,0.514c-0.091,0.023-0.12,0.051-0.115,0.146c0.038,0.67,0.024,1.34-0.046,2.008
		c-0.005,0.038-0.009,0.077-0.016,0.133c-0.052-0.02-0.095-0.033-0.137-0.051c-0.302-0.129-0.602-0.263-0.906-0.385
		c-0.091-0.036-0.108-0.082-0.105-0.175c0.016-0.385,0.021-0.771,0.027-1.155c0.001-0.096-0.011-0.191-0.016-0.277
		c-0.975,0.07-1.941,0.141-2.921,0.211c0,0.968,0,1.955,0,2.932c0.263,0,0.524,0.007,0.785-0.003c0.1-0.004,0.144,0.013,0.169,0.119
		c0.082,0.344,0.178,0.685,0.274,1.048c-0.418,0.02-0.82,0.037-1.231,0.056c0,0.868,0,1.729,0,2.614
		c0.692-0.245,1.162-0.736,1.587-1.319c0.26,0.986,0.514,1.948,0.773,2.934C26.882,29.618,26.604,29.709,26.322,29.781z
		 M35.021,27.026c-1.245,0.246-2.489,0.493-3.753,0.743c0.835,0.936,1.654,1.853,2.484,2.782c-0.218,0.19-0.434,0.378-0.659,0.576
		c-0.827-0.926-1.648-1.845-2.485-2.781c-0.408,1.21-0.808,2.4-1.209,3.592c-0.009,0.001-0.018,0.003-0.027,0.006
		c-1.092-3.095-2.184-6.189-3.288-9.319c3.003,1.468,5.973,2.92,8.942,4.374C35.024,27.009,35.022,27.018,35.021,27.026z"/>
	<path fill-rule="evenodd" clip-rule="evenodd" fill="#FFFFFF" d="M30.711,19.009c-0.768-1.807-2.043-3.08-3.834-3.841
		c1.094,1.253,1.628,2.751,1.919,4.371C29.448,19.413,30.084,19.252,30.711,19.009z"/>
	<path fill-rule="evenodd" clip-rule="evenodd" fill="#FFFFFF" d="M27.596,19.654c-0.176-0.998-0.476-1.953-0.996-2.83
		c-0.295-0.497-0.644-0.951-1.12-1.288c-0.2-0.142-0.426-0.25-0.669-0.39c0,1.629,0,3.204,0,4.793
		c0.938-0.022,1.863-0.081,2.789-0.207C27.598,19.697,27.599,19.674,27.596,19.654z"/>
</g>
</svg>
