<?xml version="1.0" encoding="utf-8"?>
<!-- Generator: Adobe Illustrator 16.0.0, SVG Export Plug-In . SVG Version: 6.00 Build 0)  -->
<!DOCTYPE svg PUBLIC "-//W3C//DTD SVG 1.1//EN" "http://www.w3.org/Graphics/SVG/1.1/DTD/svg11.dtd">
<svg version="1.1" id="Layer_1" xmlns="http://www.w3.org/2000/svg" xmlns:xlink="http://www.w3.org/1999/xlink" x="0px" y="0px"
	 width="45px" height="45px" viewBox="0 0 45 45" enable-background="new 0 0 45 45" xml:space="preserve">
<path fill-rule="evenodd" clip-rule="evenodd" fill="#FFFFFF" d="M42.104,13.931c-1.62-0.527-2.928-0.945-4.561-1.432
	c-1.203-0.359-2.316-0.094-3.285,0.698c-0.81,0.663-1.602,1.348-2.385,2.04c-0.792,0.7-1.456,0.686-2.184-0.071
	c-0.425-0.441-0.869-0.857-1.352-1.226c0.021,0.013,0.042,0.022,0.062,0.035c0.033-1.662-0.316-3.159-1.451-4.402
	c-0.414-0.454-0.423-0.611-0.051-1.112c1.333-1.793,3.129-2.715,5.354-2.79c0.817-0.027,1.635,0.003,2.452-0.01
	c0.484-0.009,0.76-0.417,0.599-0.858c-0.119-0.321-0.391-0.397-0.692-0.394c-0.896,0.008-1.792-0.013-2.684,0.043
	c-2.556,0.161-4.636,1.218-6.122,3.348c-0.327,0.469-0.399,0.484-0.928,0.248C23.283,7.333,21.69,7.339,20.1,8.051
	c-0.515,0.23-0.59,0.214-0.924-0.261c-1.169-1.668-2.734-2.733-4.744-3.137c-1.347-0.271-2.708-0.257-4.07-0.242
	C9.881,4.416,9.647,4.64,9.652,5.046c0.005,0.406,0.244,0.615,0.725,0.618c0.727,0.004,1.453,0.001,2.18,0.002
	c1.659,0.002,3.152,0.51,4.408,1.586c0.48,0.412,0.846,0.967,1.224,1.486c0.192,0.263,0.132,0.544-0.113,0.804
	c-0.692,0.732-1.154,1.599-1.329,2.593c-0.105,0.597-0.137,1.207-0.208,1.869c0.047-0.028,0.093-0.051,0.14-0.077
	c-0.489,0.37-0.939,0.791-1.368,1.238c-0.728,0.757-1.392,0.771-2.184,0.071c-0.784-0.692-1.575-1.377-2.385-2.04
	c-0.968-0.792-2.082-1.057-3.285-0.698c-1.632,0.487-2.94,0.905-4.561,1.432c-0.457,0.19-1.369,0.584-1.05,1.423
	c0.343,0.904,1.208,0.802,1.914,0.555c1.224-0.43,2.722-0.892,3.96-1.276c0.738-0.229,1.433-0.076,2.012,0.437
	c0.884,0.783,1.752,1.583,2.612,2.394c0.558,0.526,0.532,1.189,0.389,1.878c-0.176,0.846-0.333,1.695-0.484,2.546
	c-0.166,0.931-0.567,1.278-1.523,1.28c-1.616,0.003-3.231,0.001-4.847,0.001c-0.329,0-0.659-0.008-0.988,0.003
	c-0.705,0.022-1.165,0.474-1.147,1.11c0.019,0.604,0.497,1.041,1.171,1.042c1.81,0.003,3.621-0.032,5.43,0.003
	c1.511,0.029,1.712,0.264,1.948,1.747c0.15,0.941,0.352,1.875,0.55,2.808c0.11,0.518-0.019,0.702-0.558,0.651
	c-2.177-0.204-3.711,0.688-4.688,2.64c-0.735,1.47-1.544,2.903-2.306,4.361c-0.389,0.745-0.011,1.483,0.803,1.617
	c0.478,0.079,0.845-0.129,1.142-0.683c0.819-1.527,1.641-3.056,2.438-4.596c0.445-0.859,1.155-1.246,2.081-1.195
	c1.283,0.07,2.286,0.677,3.073,1.697c1.213,1.572,2.448,3.13,3.701,4.672c0.493,0.607,1.098,1.112,1.851,1.377
	c0.304,0.107,0.638,0.169,0.959,0.172c0.597,0.007,1.028-0.357,1.161-0.91c0.133,0.553,0.564,0.917,1.162,0.91
	c0.321-0.003,0.655-0.064,0.959-0.172c0.754-0.265,1.358-0.77,1.852-1.377c1.252-1.542,2.487-3.1,3.7-4.672
	c0.787-1.021,1.791-1.627,3.073-1.697c0.926-0.051,1.637,0.336,2.081,1.195c0.797,1.54,1.619,3.068,2.438,4.596
	c0.296,0.554,0.664,0.762,1.141,0.683c0.814-0.134,1.192-0.872,0.804-1.617c-0.762-1.458-1.571-2.892-2.307-4.361
	c-0.977-1.952-2.511-2.844-4.688-2.64c-0.539,0.051-0.668-0.134-0.558-0.651c0.197-0.933,0.399-1.866,0.549-2.808
	c0.236-1.483,0.438-1.718,1.948-1.747c1.811-0.035,3.62,0,5.431-0.003c0.675-0.001,1.152-0.438,1.171-1.042
	c0.019-0.637-0.441-1.088-1.146-1.11c-0.329-0.011-0.659-0.003-0.988-0.003c-1.616,0-3.23,0.002-4.847-0.001
	c-0.956-0.002-1.357-0.35-1.523-1.28c-0.151-0.851-0.308-1.701-0.484-2.546c-0.143-0.689-0.168-1.352,0.389-1.878
	c0.86-0.811,1.729-1.611,2.613-2.394c0.578-0.513,1.272-0.667,2.011-0.437c1.239,0.385,2.736,0.847,3.96,1.276
	c0.705,0.248,1.57,0.349,1.914-0.555C43.473,14.515,42.561,14.121,42.104,13.931z"/>
</svg>
