<?xml version="1.0" encoding="utf-8"?>
<!-- Generator: Adobe Illustrator 16.0.0, SVG Export Plug-In . SVG Version: 6.00 Build 0)  -->
<!DOCTYPE svg PUBLIC "-//W3C//DTD SVG 1.1//EN" "http://www.w3.org/Graphics/SVG/1.1/DTD/svg11.dtd">
<svg version="1.1" id="Layer_1" xmlns="http://www.w3.org/2000/svg" xmlns:xlink="http://www.w3.org/1999/xlink" x="0px" y="0px"
	 width="45px" height="45px" viewBox="0 0 45 45" enable-background="new 0 0 45 45" xml:space="preserve">
<path fill-rule="evenodd" clip-rule="evenodd" fill="#450468" d="M44.536,22.536c0-12.131-9.869-22-22-22
	c-12.132,0-22.001,9.869-22.001,22c0,12.131,9.869,22,22.001,22c2.866,0,5.604-0.557,8.117-1.559c0,0,0.555-0.348,0.32-0.941
	c-0.241-0.611-1.292-0.23-1.292-0.23c-2.226,0.83-4.629,1.293-7.146,1.293c-8.232,0-15.313-4.85-18.599-11.836
	c-0.02-0.037-0.038-0.076-0.056-0.115c-0.17-0.365-0.329-0.732-0.478-1.109c-0.001-0.004-0.002-0.008-0.004-0.01
	c-0.269-0.688-0.498-1.391-0.693-2.111c-0.048-0.18-0.095-0.357-0.139-0.541c-0.12-0.494-0.219-0.996-0.303-1.506
	c-0.044-0.27-0.09-0.539-0.124-0.813c-0.039-0.316-0.067-0.639-0.091-0.959c-0.021-0.277-0.033-0.559-0.042-0.838
	C2,23.018,1.972,22.781,1.972,22.536c0-11.356,9.206-20.563,20.563-20.563c11.355,0,20.564,9.206,20.564,20.563
	c0,0.228-0.026,0.446-0.035,0.67c-0.01,0.309-0.021,0.613-0.045,0.916c-0.023,0.309-0.051,0.613-0.088,0.918
	c-0.041,0.33-0.095,0.658-0.149,0.984c-0.076,0.445-0.167,0.885-0.271,1.32c-0.05,0.201-0.102,0.404-0.156,0.605
	c-0.18,0.658-0.391,1.305-0.633,1.936c-0.021,0.057-0.039,0.113-0.063,0.172c-0.143,0.361-0.297,0.717-0.46,1.068
	c-0.03,0.066-0.063,0.129-0.095,0.195c-0.327,0.691-0.69,1.361-1.092,2.008c-0.01,0.016-0.03,0.053-0.033,0.057
	c-1.846,2.723-2.66,2.973-4.902,3.504c-2.541,0.375-3.854-0.291-3.854-0.291c0.515-0.465,2.547-2.152,2.949-2.586
	c0.467-0.504,0.933-1.02,1.081-1.727c0.19-0.91,0.372-1.82,0.57-2.727c0.091-0.41-0.095-0.705-0.359-0.969
	c-0.163-0.16-0.345-0.303-0.528-0.436c-0.919-0.672-1.951-1.121-3.037-1.416c-0.619-0.168-1.279-0.248-1.922-0.248
	c-0.594,0-0.78,0.258-0.923,0.836c-0.21,0.854-0.408,1.713-0.664,2.553c-0.165,0.547-0.446,0.727-0.934,0.66
	c-0.277-0.039-0.592-0.113-0.804-0.281c-0.632-0.504-1.246-1.035-1.82-1.602c-1.944-1.92-3.878-3.85-5.795-5.796
	c-0.829-0.843-1.699-1.671-2.381-2.627c-0.619-0.868-0.401-1.515,0.588-1.805c0.081-0.023,0.161-0.049,0.243-0.069
	c0.738-0.178,1.478-0.355,2.217-0.531c0.36-0.086,0.62-0.287,0.679-0.667c0.043-0.271,0.094-0.555,0.06-0.824
	c-0.205-1.637-0.815-3.12-1.756-4.469c-0.434-0.623-0.972-0.995-1.785-0.708c-0.27,0.095-0.564,0.125-0.853,0.16
	c-1.15,0.146-2.196,0.515-3.077,1.308c-1.206,1.086-1.942,2.43-2.201,4.019c-0.438,2.696,0.296,5.118,1.942,7.24
	c1.004,1.295,2.107,2.523,3.247,3.705c1.866,1.938,3.734,3.881,5.718,5.693c2.178,1.99,4.683,3.488,7.563,4.275
	c1.814,0.496,2.941,0.891,5.17,0.891c5.229,0,7.302-5.156,7.364-5.27C43.532,30.026,44.536,26.397,44.536,22.536z"/>
</svg>
