<?xml version="1.0" encoding="utf-8"?>
<!-- Generator: Adobe Illustrator 16.0.0, SVG Export Plug-In . SVG Version: 6.00 Build 0)  -->
<!DOCTYPE svg PUBLIC "-//W3C//DTD SVG 1.1//EN" "http://www.w3.org/Graphics/SVG/1.1/DTD/svg11.dtd">
<svg version="1.1" id="Layer_1" xmlns="http://www.w3.org/2000/svg" xmlns:xlink="http://www.w3.org/1999/xlink" x="0px" y="0px"
	 width="258px" height="95.667px" viewBox="-111.667 6 258 95.667" enable-background="new -111.667 6 258 95.667"
	 xml:space="preserve">
<g>
	<path fill="#FFFFFF" d="M-53.414,70.396l13.625-0.375l-0.875,9.375l-12.875-0.375v5.875c0,5,0.125,11,0.25,14.625h-11.125
		c0.125-3.5,0.625-9,0.625-16v-4.375h-44.5l-0.25-1l54.375-70h0.75V70.396z M-63.539,33.146h-0.25
		c-4.125,6.25-23.125,30.875-27.625,37.125h27.875V33.146z"/>
	<path fill="#FFFFFF" d="M-19.791,55.896c0-25.25,19.5-41.875,40.625-41.875c22.25,0,38.75,16.625,38.75,40.875
		c0,21.75-16,42.5-41.125,42.5C-0.416,97.396-19.791,83.646-19.791,55.896z M48.584,54.396c0-16.375-12.625-30.625-28.875-30.625
		c-16.375,0-28.5,13.75-28.5,32.75c0,14.625,9.75,31.125,29,31.125C32.834,87.646,48.584,77.021,48.584,54.396z"/>
	<path fill="#FFFFFF" d="M129.582,70.396l13.625-0.375l-0.875,9.375l-12.875-0.375v5.875c0,5,0.125,11,0.25,14.625h-11.125
		c0.125-3.5,0.625-9,0.625-16v-4.375h-44.5l-0.25-1l54.375-70h0.75V70.396z M119.457,33.146h-0.25
		c-4.125,6.25-23.125,30.875-27.625,37.125h27.875V33.146z"/>
	<g>
		<g>
			<path fill="#FFFFFF" d="M7.332,45.648c0.01-1.896,1.583-3.453,3.461-3.424c1.896,0.027,3.422,1.596,3.398,3.49
				c-0.021,1.859-1.582,3.4-3.438,3.396C8.867,49.109,7.323,47.545,7.332,45.648z"/>
			<path fill="#FFFFFF" d="M25.59,45.586c0.066-1.916,1.672-3.443,3.525-3.357c1.919,0.09,3.42,1.684,3.343,3.551
				c-0.077,1.895-1.69,3.4-3.563,3.33C27.031,49.039,25.528,47.436,25.59,45.586z"/>
		</g>
		<path fill="#FFFFFF" d="M35.52,68.422c0,0-0.137-0.057-0.386-0.172c-0.25-0.111-0.606-0.297-1.058-0.516
			c-0.455-0.209-0.971-0.482-1.588-0.768c-0.153-0.068-0.311-0.146-0.47-0.227c-0.157-0.08-0.327-0.15-0.497-0.23
			c-0.341-0.15-0.686-0.328-1.059-0.482c-0.371-0.16-0.748-0.34-1.146-0.494c-0.195-0.082-0.395-0.164-0.598-0.25
			c-0.205-0.076-0.41-0.158-0.621-0.236c-0.412-0.17-0.848-0.305-1.279-0.467c-0.217-0.076-0.441-0.135-0.662-0.211
			c-0.221-0.072-0.445-0.145-0.672-0.203c-0.225-0.064-0.453-0.129-0.682-0.191c-0.229-0.055-0.459-0.107-0.691-0.166
			c-0.229-0.063-0.467-0.1-0.701-0.148c-0.115-0.023-0.232-0.049-0.35-0.072c-0.117-0.025-0.236-0.037-0.355-0.059
			c-0.236-0.031-0.471-0.084-0.709-0.109c-0.236-0.027-0.475-0.055-0.713-0.086c-0.477-0.033-0.954-0.084-1.432-0.086
			c-0.953-0.025-1.91,0.006-2.851,0.119c-0.941,0.115-1.866,0.289-2.77,0.504c-0.897,0.229-1.771,0.502-2.603,0.795
			c-0.209,0.072-0.408,0.16-0.611,0.232c-0.203,0.076-0.404,0.146-0.598,0.232c-0.388,0.168-0.777,0.313-1.139,0.484
			c-0.184,0.082-0.361,0.162-0.538,0.238C8.564,65.928,8.4,66.02,8.23,66.094c-0.335,0.16-0.659,0.309-0.957,0.461
			c-0.303,0.152-0.586,0.293-0.85,0.422c-0.262,0.137-0.502,0.266-0.727,0.373c-0.448,0.223-0.791,0.412-1.04,0.529
			C4.412,68,4.273,68.061,4.273,68.061s0.063-0.133,0.186-0.379c0.063-0.121,0.141-0.273,0.235-0.445
			c0.048-0.088,0.099-0.184,0.153-0.283c0.058-0.102,0.123-0.201,0.188-0.311c0.134-0.219,0.29-0.451,0.46-0.713
			c0.082-0.133,0.18-0.258,0.278-0.391c0.103-0.133,0.206-0.273,0.313-0.416c0.211-0.291,0.463-0.576,0.729-0.879
			c0.263-0.311,0.563-0.611,0.879-0.924c0.311-0.322,0.671-0.619,1.036-0.939c0.179-0.164,0.382-0.305,0.579-0.461
			c0.201-0.152,0.402-0.311,0.617-0.457c0.857-0.59,1.82-1.148,2.881-1.623c1.063-0.461,2.222-0.844,3.437-1.09
			c1.215-0.248,2.483-0.344,3.747-0.311c0.629,0.012,1.258,0.078,1.879,0.156c0.311,0.049,0.617,0.105,0.924,0.16
			c0.305,0.059,0.604,0.137,0.902,0.209c0.299,0.07,0.592,0.158,0.879,0.252c0.289,0.094,0.578,0.178,0.855,0.291
			c0.275,0.109,0.551,0.217,0.824,0.324c0.268,0.119,0.527,0.246,0.789,0.367c0.262,0.117,0.51,0.256,0.756,0.391
			c0.244,0.137,0.488,0.266,0.721,0.412c0.232,0.143,0.459,0.287,0.682,0.434c0.227,0.141,0.436,0.297,0.645,0.449
			c0.207,0.152,0.412,0.301,0.607,0.453c0.193,0.16,0.383,0.314,0.564,0.471c0.372,0.303,0.704,0.627,1.022,0.934
			c0.323,0.303,0.603,0.619,0.874,0.918c0.273,0.291,0.512,0.586,0.73,0.867c0.448,0.549,0.799,1.076,1.08,1.5
			c0.145,0.211,0.251,0.408,0.352,0.578c0.099,0.172,0.18,0.318,0.244,0.439C35.453,68.287,35.52,68.422,35.52,68.422z"/>
	</g>
</g>
</svg>
