<?xml version="1.0" encoding="utf-8"?>
<!-- Generator: Adobe Illustrator 16.0.0, SVG Export Plug-In . SVG Version: 6.00 Build 0)  -->
<!DOCTYPE svg PUBLIC "-//W3C//DTD SVG 1.1//EN" "http://www.w3.org/Graphics/SVG/1.1/DTD/svg11.dtd">
<svg version="1.1" id="Layer_1" xmlns="http://www.w3.org/2000/svg" xmlns:xlink="http://www.w3.org/1999/xlink" x="0px" y="0px"
	 width="45px" height="45px" viewBox="0 0 45 45" enable-background="new 0 0 45 45" xml:space="preserve">
<path fill="#FFFFFF" d="M22.5,0.5c-12.131,0-22,9.869-22,22s9.869,22,22,22s22-9.869,22-22S34.631,0.5,22.5,0.5z M34.034,39.496
	c0.013-0.09,0.032-0.178,0.026-0.268c-0.17-3.162-0.737-5.849-1.736-8.209c-1.118-2.656-2.696-4.555-4.822-5.803
	c-0.21-0.121-0.57-0.248-0.977-0.234c1.466-1.168,2.373-2.979,2.369-5.087c-0.006-3.669-2.752-6.436-6.401-6.436
	c-3.754,0.006-6.492,2.733-6.511,6.486c-0.008,1.745,0.64,3.362,1.825,4.553c0.184,0.186,0.381,0.354,0.585,0.511
	C17.971,25,17.6,25.141,17.383,25.275c-1.66,1.039-3.008,2.5-4.007,4.342c-1.408,2.595-2.158,5.516-2.434,9.471
	c-0.01,0.145,0.004,0.273,0.019,0.404c-5.434-3.702-9.01-9.938-9.01-16.992c0-11.331,9.218-20.549,20.549-20.549
	S43.05,11.169,43.05,22.5C43.05,29.559,39.471,35.795,34.034,39.496z"/>
</svg>
