<?xml version="1.0" encoding="utf-8"?>
<!-- Generator: Adobe Illustrator 16.0.0, SVG Export Plug-In . SVG Version: 6.00 Build 0)  -->
<!DOCTYPE svg PUBLIC "-//W3C//DTD SVG 1.1//EN" "http://www.w3.org/Graphics/SVG/1.1/DTD/svg11.dtd">
<svg version="1.1" id="Layer_1" xmlns="http://www.w3.org/2000/svg" xmlns:xlink="http://www.w3.org/1999/xlink" x="0px" y="0px"
	 width="45px" height="45px" viewBox="0 0 45 45" enable-background="new 0 0 45 45" xml:space="preserve">
<path fill="#FFFFFF" d="M44.536,22.536c0-12.131-9.869-22-22-22c-12.132,0-22.001,9.869-22.001,22c0,12.131,9.869,22,22.001,22
	c2.866,0,5.604-0.558,8.116-1.56c0,0,0.556-0.348,0.32-0.94c-0.24-0.611-1.291-0.229-1.291-0.229
	c-2.227,0.83-4.629,1.293-7.146,1.293c-8.232,0-15.313-4.851-18.599-11.836c-0.02-0.037-0.038-0.076-0.056-0.115
	c-0.17-0.365-0.329-0.732-0.478-1.109c-0.001-0.004-0.002-0.008-0.004-0.01c-0.269-0.688-0.498-1.391-0.693-2.111
	c-0.048-0.18-0.095-0.357-0.139-0.541c-0.12-0.494-0.219-0.996-0.303-1.506c-0.044-0.27-0.09-0.539-0.124-0.813
	C2.1,24.742,2.072,24.419,2.048,24.1c-0.021-0.277-0.033-0.56-0.042-0.838C2,23.018,1.972,22.781,1.972,22.536
	c0-11.356,9.206-20.563,20.563-20.563c11.355,0,20.564,9.206,20.564,20.563c0,0.228-0.027,0.446-0.035,0.67
	c-0.01,0.31-0.021,0.612-0.045,0.916c-0.023,0.31-0.052,0.612-0.088,0.918c-0.041,0.33-0.096,0.657-0.149,0.983
	c-0.076,0.445-0.167,0.886-0.271,1.32c-0.051,0.201-0.103,0.404-0.156,0.605c-0.181,0.658-0.392,1.305-0.633,1.936
	c-0.021,0.057-0.039,0.113-0.063,0.172c-0.144,0.361-0.298,0.717-0.46,1.068c-0.03,0.066-0.063,0.129-0.096,0.195
	c-0.326,0.691-0.689,1.361-1.092,2.008c-0.01,0.016-0.029,0.053-0.033,0.057c-1.846,2.723-2.66,2.973-4.901,3.504
	c-2.541,0.375-3.854-0.291-3.854-0.291c0.516-0.465,2.547-2.152,2.949-2.586c0.467-0.504,0.934-1.02,1.081-1.727
	c0.19-0.91,0.372-1.82,0.57-2.727c0.091-0.41-0.095-0.705-0.359-0.97c-0.163-0.159-0.345-0.303-0.528-0.437
	c-0.918-0.672-1.951-1.121-3.037-1.416c-0.619-0.168-1.278-0.248-1.922-0.248c-0.594,0-0.779,0.259-0.922,0.837
	c-0.211,0.854-0.408,1.713-0.664,2.553c-0.166,0.547-0.447,0.728-0.935,0.66c-0.276-0.039-0.593-0.113-0.804-0.281
	c-0.633-0.504-1.246-1.034-1.82-1.603c-1.944-1.92-3.878-3.85-5.795-5.795c-0.829-0.843-1.699-1.671-2.381-2.627
	c-0.619-0.868-0.401-1.515,0.588-1.805c0.081-0.023,0.161-0.049,0.243-0.069c0.738-0.178,1.478-0.355,2.217-0.531
	c0.36-0.086,0.62-0.287,0.679-0.667c0.043-0.271,0.094-0.555,0.06-0.824c-0.205-1.637-0.815-3.12-1.756-4.469
	c-0.434-0.623-0.972-0.995-1.785-0.708c-0.27,0.095-0.564,0.125-0.853,0.16c-1.15,0.146-2.196,0.515-3.077,1.308
	c-1.206,1.086-1.942,2.43-2.201,4.019c-0.438,2.696,0.296,5.118,1.942,7.241c1.004,1.295,2.107,2.522,3.247,3.704
	c1.866,1.938,3.734,3.882,5.718,5.693c2.177,1.989,4.683,3.487,7.563,4.274c1.813,0.496,2.94,0.892,5.17,0.892
	c5.229,0,7.302-5.156,7.364-5.271C43.532,30.025,44.536,26.396,44.536,22.536z"/>
</svg>
