<?xml version="1.0" encoding="utf-8"?>
<!-- Generator: Adobe Illustrator 16.0.0, SVG Export Plug-In . SVG Version: 6.00 Build 0)  -->
<!DOCTYPE svg PUBLIC "-//W3C//DTD SVG 1.1//EN" "http://www.w3.org/Graphics/SVG/1.1/DTD/svg11.dtd">
<svg version="1.1" id="Layer_1" xmlns="http://www.w3.org/2000/svg" xmlns:xlink="http://www.w3.org/1999/xlink" x="0px" y="0px"
	 width="29px" height="29px" viewBox="0 0 29 29" enable-background="new 0 0 29 29" xml:space="preserve">
<path fill="#FFFFFF" d="M13.893,0.022C6.421,0.287-0.075,6.461,0.001,14.711c0.074,8.001,6.755,14.375,14.45,14.273
	c7.788,0.18,14.766-6.471,14.545-14.891C28.804,6.783,22.715-0.291,13.893,0.022z M9.736,23.114H6.146V11.605h3.591V23.114z
	 M7.945,10.035c-1.149,0-2.08-0.93-2.08-2.08c0-1.14,0.931-2.07,2.08-2.07c1.141,0,2.07,0.93,2.07,2.07
	C10.016,9.105,9.086,10.035,7.945,10.035z M23.136,23.114h-3.58v-5.6c0-1.33-0.02-3.05-1.859-3.05c-1.86,0-2.15,1.46-2.15,2.96
	v5.689h-3.57V11.605h3.431v1.57h0.05c0.479-0.9,1.64-1.86,3.39-1.86c3.62,0,4.29,2.39,4.29,5.49V23.114z"/>
</svg>
