<?xml version="1.0" encoding="utf-8"?>
<!-- Generator: Adobe Illustrator 16.0.0, SVG Export Plug-In . SVG Version: 6.00 Build 0)  -->
<!DOCTYPE svg PUBLIC "-//W3C//DTD SVG 1.1//EN" "http://www.w3.org/Graphics/SVG/1.1/DTD/svg11.dtd">
<svg version="1.1" id="Layer_1" xmlns="http://www.w3.org/2000/svg" xmlns:xlink="http://www.w3.org/1999/xlink" x="0px" y="0px"
	 width="29px" height="29px" viewBox="0 0 29 29" enable-background="new 0 0 29 29" xml:space="preserve">
<path fill-rule="evenodd" clip-rule="evenodd" fill="#FFFFFF" d="M29,15.582c-0.047,0.414-0.086,0.829-0.144,1.241
	c-0.485,3.438-2.009,6.337-4.543,8.702c-1.46,1.364-3.144,2.369-5.033,3.024c-0.105,0.037-0.216,0.07-0.326,0.078
	c-0.526,0.037-0.825-0.239-0.824-0.768c0.001-1.265,0.021-2.529,0.008-3.793c-0.005-0.448-0.056-0.9-0.14-1.341
	c-0.104-0.553-0.375-1.036-0.786-1.443c0.589-0.114,1.157-0.207,1.716-0.336c0.781-0.181,1.52-0.474,2.197-0.908
	c0.953-0.61,1.65-1.441,2.059-2.49c0.603-1.55,0.768-3.153,0.451-4.79c-0.174-0.903-0.597-1.696-1.193-2.394
	c-0.1-0.117-0.125-0.208-0.077-0.362c0.368-1.184,0.271-2.352-0.165-3.499c-0.027-0.075-0.145-0.172-0.214-0.167
	c-0.382,0.032-0.771,0.053-1.14,0.15c-0.911,0.243-1.719,0.715-2.499,1.232c-0.134,0.089-0.25,0.103-0.401,0.064
	c-2.26-0.58-4.521-0.583-6.782-0.008c-0.178,0.045-0.313,0.028-0.468-0.074c-0.836-0.55-1.707-1.038-2.691-1.271
	C7.703,6.36,7.385,6.353,7.073,6.34C7.007,6.338,6.899,6.423,6.874,6.492C6.44,7.655,6.333,8.835,6.71,10.04
	c0.026,0.084-0.003,0.223-0.06,0.291c-0.974,1.157-1.397,2.494-1.358,3.996c0.028,1.095,0.165,2.166,0.579,3.188
	c0.695,1.713,1.995,2.754,3.726,3.277c0.721,0.218,1.469,0.343,2.211,0.511c0.003-0.005-0.008,0.032-0.032,0.057
	c-0.427,0.444-0.662,0.984-0.764,1.584c-0.032,0.188-0.112,0.292-0.292,0.354c-0.896,0.313-1.786,0.416-2.672-0.023
	c-0.528-0.263-0.919-0.673-1.229-1.165c-0.294-0.469-0.639-0.891-1.099-1.205c-0.478-0.327-1-0.479-1.578-0.354
	c-0.323,0.069-0.384,0.25-0.166,0.495c0.106,0.119,0.228,0.235,0.366,0.312c0.493,0.269,0.833,0.684,1.113,1.148
	c0.224,0.371,0.432,0.755,0.606,1.151c0.422,0.958,1.185,1.448,2.176,1.644c0.794,0.156,1.586,0.098,2.378-0.023
	c0.056-0.009,0.111-0.019,0.167-0.024c0.023-0.003,0.047,0.003,0.089,0.007c0.005,0.07,0.014,0.14,0.015,0.21
	c0.009,0.766,0.018,1.53,0.024,2.296c0.005,0.702-0.458,1.046-1.115,0.801c-5.021-1.878-8.198-5.403-9.449-10.628
	c-0.164-0.685-0.204-1.398-0.302-2.099C0.031,15.753,0.014,15.667,0,15.582c0-0.5,0-0.999,0-1.499
	c0.054-0.462,0.092-0.926,0.164-1.385c0.532-3.373,2.042-6.231,4.56-8.539C6.94,2.127,9.55,0.911,12.532,0.499
	c0.397-0.055,0.796-0.096,1.195-0.143c0.516,0,1.031,0,1.547,0c0.07,0.015,0.141,0.037,0.211,0.042
	c2.768,0.187,5.289,1.08,7.52,2.725c3.311,2.441,5.268,5.712,5.857,9.79c0.056,0.389,0.093,0.78,0.139,1.171
	C29,14.583,29,15.082,29,15.582z"/>
</svg>
