<?xml version="1.0" encoding="utf-8"?>
<!-- Generator: Adobe Illustrator 16.0.0, SVG Export Plug-In . SVG Version: 6.00 Build 0)  -->
<!DOCTYPE svg PUBLIC "-//W3C//DTD SVG 1.1//EN" "http://www.w3.org/Graphics/SVG/1.1/DTD/svg11.dtd">
<svg version="1.1" id="Layer_1" xmlns="http://www.w3.org/2000/svg" xmlns:xlink="http://www.w3.org/1999/xlink" x="0px" y="0px"
	 width="45.07px" height="45.07px" viewBox="0 0 45.07 45.07" enable-background="new 0 0 45.07 45.07" xml:space="preserve">
<g>
	<path fill="#11DAE2" d="M2.25,20.6c0.077-0.423,0.174-0.846,0.229-1.272c0.141-1.128,0.396-2.23,0.756-3.307
		c0.466-1.383,1.016-2.729,1.822-3.956c0.688-1.044,1.4-2.07,2.141-3.16C6.072,7.77,4.887,6.575,3.701,5.38
		c0.024-0.031,0.05-0.062,0.075-0.094c3.138,0,6.275,0,9.438,0c0,3.148,0,6.29,0,9.542c-0.721-0.529-1.224-1.192-1.826-1.744
		c-0.604-0.552-1.161-1.156-1.79-1.788c-0.331,0.42-0.69,0.794-0.954,1.226c-0.595,0.975-1.199,1.952-1.695,2.977
		c-0.555,1.146-0.87,2.384-1.147,3.631c-0.325,1.465-0.39,2.955-0.291,4.438c0.068,1.021,0.275,2.047,0.512,3.047
		c0.292,1.229-0.696,2.275-1.633,2.203c-0.995-0.074-1.489-0.725-1.666-1.7c-0.126-0.697-0.242-1.397-0.361-2.097
		c-0.04-0.234-0.076-0.471-0.115-0.705C2.25,23.076,2.25,21.839,2.25,20.6z"/>
	<path fill="#11DAE2" d="M24.15,2.258c0.285,0.052,0.569,0.104,0.854,0.158c0.937,0.176,1.893,0.287,2.804,0.547
		c1.085,0.311,2.166,0.679,3.186,1.156C32,4.591,32.946,5.201,33.886,5.803c0.706,0.453,1.358,0.987,2.08,1.518
		c1.195-1.186,2.417-2.397,3.636-3.607c0.029,0.019,0.058,0.039,0.089,0.057c0,3.138,0,6.274,0,9.443c-3.128,0-6.279,0-9.427,0
		c-0.029-0.028-0.058-0.055-0.086-0.083c1.135-1.14,2.272-2.281,3.493-3.506c-1.154-0.751-2.219-1.498-3.34-2.151
		c-0.673-0.392-1.421-0.661-2.152-0.939c-1.394-0.528-2.841-0.821-4.324-0.968c-1.295-0.126-2.574-0.086-3.849,0.163
		c-0.595,0.116-1.188,0.241-1.788,0.321c-0.857,0.114-1.466-0.312-1.802-1.126c-0.32-0.778,0.187-1.648,0.751-1.874
		c0.563-0.227,1.175-0.347,1.776-0.472c0.649-0.133,1.309-0.217,1.966-0.323C21.988,2.258,23.069,2.258,24.15,2.258z"/>
	<path fill="#11DAE2" d="M37.639,35.948c1.218,1.23,2.425,2.447,3.631,3.667c-0.021,0.029-0.043,0.059-0.065,0.089
		c-3.136,0-6.272,0-9.438,0c0-3.138,0-6.278,0-9.525c0.713,0.499,1.197,1.162,1.792,1.698c0.597,0.537,1.153,1.121,1.763,1.719
		c0.353-0.438,0.724-0.852,1.038-1.305c0.367-0.526,0.722-1.066,1.009-1.638c0.398-0.788,0.805-1.59,1.072-2.428
		c0.386-1.21,0.75-2.443,0.934-3.695c0.168-1.147,0.166-2.335,0.086-3.497c-0.073-1.06-0.373-2.104-0.537-3.161
		c-0.121-0.778,0.44-1.676,1.33-1.775c1.385-0.156,1.879,0.771,2.007,1.715c0.089,0.664,0.235,1.32,0.342,1.982
		c0.058,0.371,0.113,0.747,0.12,1.121c0.019,0.817,0.06,1.638-0.006,2.449c-0.085,1.097-0.218,2.191-0.409,3.275
		c-0.146,0.831-0.38,1.651-0.634,2.459c-0.195,0.611-0.465,1.199-0.73,1.783C40.105,32.73,38.987,34.397,37.639,35.948z"/>
	<path fill="#11DAE2" d="M11.305,35.369c1.172,1.029,2.424,1.825,3.778,2.475c1.297,0.623,2.663,1.021,4.059,1.331
		c1.255,0.28,2.524,0.349,3.807,0.323c1.095-0.02,2.168-0.181,3.232-0.418c0.393-0.088,0.801-0.14,1.201-0.132
		c0.863,0.021,1.597,1.06,1.396,1.892c-0.236,0.96-1.017,1.343-1.761,1.429c-0.667,0.078-1.323,0.233-1.984,0.338
		c-0.37,0.06-0.746,0.113-1.12,0.123c-0.711,0.02-1.422-0.012-2.134,0.01c-1.193,0.037-2.352-0.183-3.515-0.399
		c-1.98-0.37-3.839-1.08-5.606-2.037c-1.172-0.636-2.283-1.362-3.281-2.257c-0.124-0.111-0.268-0.199-0.428-0.315
		c-1.194,1.188-2.379,2.367-3.566,3.547c-0.03-0.018-0.059-0.037-0.09-0.053c0-3.146,0-6.292,0-9.457c3.136,0,6.279,0,9.421,0
		c0.027,0.028,0.057,0.058,0.085,0.088C13.644,33.019,12.488,34.181,11.305,35.369z"/>
</g>
</svg>
