<?xml version="1.0" encoding="utf-8"?>
<!-- Generator: Adobe Illustrator 16.0.0, SVG Export Plug-In . SVG Version: 6.00 Build 0)  -->
<!DOCTYPE svg PUBLIC "-//W3C//DTD SVG 1.1//EN" "http://www.w3.org/Graphics/SVG/1.1/DTD/svg11.dtd">
<svg version="1.1" id="Layer_1" xmlns="http://www.w3.org/2000/svg" xmlns:xlink="http://www.w3.org/1999/xlink" x="0px" y="0px"
	 width="114.25px" height="75px" viewBox="-21 0 114.25 75" enable-background="new -21 0 114.25 75" xml:space="preserve">
<g>
	<path fill="#11DAE2" d="M66.733,5.781c0.921,1.214,1.092,2.4,0.107,3.72c-9.31,12.51-18.579,25.05-27.927,37.534
		c-0.711,0.945-2,2.228-2.876,2.123c-2.214-0.265-4.03-1.688-4.935-3.847c-0.188-0.436,0.212-1.292,0.586-1.76
		c2.837-3.561,5.652-7.148,8.636-10.586c7.325-8.438,14.729-16.806,22.123-25.183c0.738-0.828,1.618-1.525,2.431-2.283
		C65.497,5.593,66.115,5.688,66.733,5.781z"/>
	<path fill="#11DAE2" d="M4.745,68.735c0.569-0.173,0.704-0.262,0.803-0.235c4.065,1.135,6.566-0.74,8.214-4.259
		c0.081-0.17,0.174-0.335,0.274-0.489c2.986-4.605,5.896-4.683,9.084-0.261c0.914,1.262,1.104,2.573,0.571,4.051
		c-1.583,4.39-5.422,6.924-9.966,5.947c-2.547-0.546-4.93-1.93-7.335-3.052C5.799,70.161,5.411,69.444,4.745,68.735z"/>
	<path fill="#11DAE2" d="M35.604,50.939c-3.084,3.344-6.33,6.944-9.685,10.451c-0.978,1.023-2.308,0.94-3.432,0.114
		c-1.234-0.906-1.521-2.284-0.749-3.507c2.564-4.037,5.274-7.984,7.802-11.779C31.612,47.831,33.521,49.32,35.604,50.939z"/>
</g>
</svg>
