<?xml version="1.0" encoding="utf-8"?>
<!-- Generator: Adobe Illustrator 16.0.0, SVG Export Plug-In . SVG Version: 6.00 Build 0)  -->
<!DOCTYPE svg PUBLIC "-//W3C//DTD SVG 1.1//EN" "http://www.w3.org/Graphics/SVG/1.1/DTD/svg11.dtd">
<svg version="1.1" id="Layer_1" xmlns="http://www.w3.org/2000/svg" xmlns:xlink="http://www.w3.org/1999/xlink" x="0px" y="0px"
	 width="80.334px" height="75px" viewBox="-4.5 0 80.334 75" enable-background="new -4.5 0 80.334 75" xml:space="preserve">
<g>
	<path fill-rule="evenodd" clip-rule="evenodd" fill="#11DAE2" d="M33.899,7.335c1.178,0,2.356,0,3.535,0
		c0.151,0.034,0.302,0.087,0.454,0.097c4.205,0.291,8.192,1.396,11.882,3.427c8.52,4.691,13.737,11.823,15.58,21.389
		c0.221,1.148,0.32,2.321,0.478,3.48c0,1.178,0,2.356,0,3.535c-0.035,0.17-0.089,0.337-0.102,0.508
		c-0.34,4.699-1.665,9.108-4.147,13.107C55.926,61.995,47.703,66.958,36.99,67.61c-5.461,0.331-10.667-0.857-15.467-3.499
		C13.021,59.431,7.822,52.292,5.983,42.745c-0.222-1.148-0.321-2.32-0.477-3.481c0-1.179,0-2.357,0-3.535
		c0.034-0.168,0.088-0.336,0.1-0.507c0.296-4.228,1.418-8.231,3.474-11.928C13.792,14.817,20.92,9.618,30.471,7.805
		C31.603,7.59,32.756,7.489,33.899,7.335z M35.647,11.695C21.456,11.714,9.876,23.297,9.866,37.485
		c-0.01,14.2,11.622,25.83,25.818,25.813c14.192-0.019,25.773-11.602,25.783-25.791C61.478,23.307,49.846,11.677,35.647,11.695z"/>
	<path fill-rule="evenodd" clip-rule="evenodd" fill="#11DAE2" d="M22.674,30.366c0.009-1.897,1.583-3.453,3.461-3.424
		c1.896,0.028,3.421,1.595,3.398,3.49c-0.021,1.859-1.582,3.4-3.437,3.397C24.209,33.826,22.665,32.263,22.674,30.366z"/>
	<path fill-rule="evenodd" clip-rule="evenodd" fill="#11DAE2" d="M40.931,30.304c0.066-1.917,1.671-3.444,3.525-3.357
		c1.919,0.089,3.42,1.683,3.343,3.549c-0.077,1.895-1.69,3.402-3.564,3.331C42.372,33.757,40.869,32.153,40.931,30.304z"/>
	<path fill="#11DAE2" d="M20.386,43.151c0,0,0.137,0.057,0.386,0.171c0.25,0.112,0.607,0.297,1.057,0.516
		c0.456,0.209,0.972,0.482,1.589,0.767c0.153,0.07,0.31,0.147,0.469,0.227c0.158,0.08,0.328,0.151,0.497,0.23
		c0.341,0.152,0.686,0.328,1.06,0.483c0.37,0.161,0.747,0.339,1.145,0.494c0.196,0.083,0.396,0.165,0.599,0.251
		c0.204,0.076,0.41,0.157,0.62,0.236c0.413,0.17,0.848,0.304,1.28,0.466c0.217,0.077,0.441,0.136,0.662,0.212
		c0.221,0.071,0.445,0.144,0.672,0.202c0.225,0.064,0.453,0.129,0.681,0.191c0.229,0.055,0.46,0.109,0.692,0.166
		c0.229,0.064,0.466,0.1,0.7,0.149c0.117,0.023,0.233,0.049,0.351,0.072c0.117,0.026,0.236,0.038,0.354,0.059
		c0.237,0.031,0.472,0.084,0.709,0.11s0.476,0.054,0.713,0.086c0.477,0.032,0.955,0.083,1.432,0.085
		c0.954,0.026,1.91-0.005,2.851-0.118c0.94-0.115,1.866-0.289,2.769-0.504c0.898-0.229,1.77-0.503,2.603-0.796
		c0.208-0.071,0.407-0.16,0.611-0.232c0.203-0.077,0.404-0.147,0.598-0.233c0.387-0.168,0.776-0.311,1.138-0.483
		c0.183-0.082,0.362-0.162,0.538-0.239c0.179-0.074,0.343-0.166,0.513-0.241c0.335-0.16,0.659-0.307,0.957-0.461
		c0.303-0.151,0.586-0.292,0.85-0.422c0.261-0.135,0.502-0.264,0.726-0.372c0.448-0.222,0.791-0.412,1.04-0.53
		c0.245-0.12,0.384-0.182,0.384-0.182s-0.062,0.134-0.185,0.379c-0.063,0.122-0.141,0.274-0.236,0.447
		c-0.048,0.088-0.099,0.183-0.154,0.283c-0.057,0.1-0.122,0.2-0.188,0.309c-0.134,0.22-0.29,0.453-0.46,0.713
		c-0.082,0.133-0.18,0.259-0.278,0.392c-0.103,0.133-0.206,0.272-0.313,0.416c-0.212,0.291-0.464,0.575-0.729,0.879
		c-0.263,0.31-0.563,0.61-0.879,0.924c-0.311,0.321-0.671,0.619-1.036,0.938c-0.179,0.164-0.382,0.306-0.579,0.461
		c-0.201,0.153-0.403,0.311-0.618,0.457c-0.857,0.591-1.82,1.15-2.881,1.624c-1.063,0.461-2.221,0.843-3.436,1.09
		c-1.214,0.247-2.483,0.344-3.746,0.311c-0.629-0.012-1.258-0.079-1.88-0.158c-0.309-0.049-0.617-0.104-0.923-0.16
		c-0.305-0.057-0.604-0.136-0.902-0.209c-0.3-0.069-0.592-0.158-0.88-0.251c-0.288-0.095-0.578-0.179-0.854-0.291
		c-0.277-0.109-0.552-0.218-0.825-0.325c-0.267-0.118-0.528-0.246-0.788-0.366c-0.263-0.117-0.51-0.257-0.756-0.392
		c-0.245-0.136-0.49-0.265-0.721-0.411c-0.232-0.144-0.459-0.288-0.682-0.434c-0.226-0.14-0.436-0.296-0.644-0.45
		c-0.208-0.152-0.412-0.301-0.609-0.453c-0.193-0.159-0.382-0.314-0.564-0.47c-0.372-0.303-0.704-0.628-1.022-0.934
		c-0.323-0.302-0.603-0.619-0.874-0.917c-0.273-0.292-0.512-0.586-0.731-0.868c-0.448-0.549-0.799-1.077-1.08-1.499
		c-0.145-0.211-0.251-0.409-0.351-0.579c-0.099-0.171-0.18-0.318-0.245-0.439C20.452,43.285,20.386,43.151,20.386,43.151z"/>
</g>
</svg>
