<?xml version="1.0" encoding="utf-8"?>
<!-- Generator: Adobe Illustrator 16.0.0, SVG Export Plug-In . SVG Version: 6.00 Build 0)  -->
<!DOCTYPE svg PUBLIC "-//W3C//DTD SVG 1.1//EN" "http://www.w3.org/Graphics/SVG/1.1/DTD/svg11.dtd">
<svg version="1.1" id="Layer_1" xmlns="http://www.w3.org/2000/svg" xmlns:xlink="http://www.w3.org/1999/xlink" x="0px" y="0px"
	 width="114.25px" height="75px" viewBox="-21 0 114.25 75" enable-background="new -21 0 114.25 75" xml:space="preserve">
<g>
	<path fill-rule="evenodd" clip-rule="evenodd" fill="#11DAE2" d="M24.82,26.974c0,2.715,0.07,5.193-0.057,7.661
		c-0.025,0.508-0.699,1.219-1.23,1.431c-6.11,2.422-12.25,4.765-18.381,7.134c-0.36,0.14-0.706,0.316-1.245,0.56
		c6.551,2.585,12.908,5.14,19.309,7.574c1.275,0.486,1.712,1.096,1.638,2.438c-0.12,2.179-0.033,4.368-0.033,6.759
		c-0.628-0.229-1.089-0.369-1.533-0.561c-9.178-3.975-18.346-7.968-27.539-11.908c-0.952-0.409-1.429-0.836-1.361-1.943
		c0.12-1.959-0.589-4.363,0.313-5.773c0.891-1.389,3.328-1.814,5.117-2.596c7.672-3.349,15.356-6.676,23.04-10.006
		C23.411,27.502,23.988,27.299,24.82,26.974z"/>
	<path fill-rule="evenodd" clip-rule="evenodd" fill="#11DAE2" d="M47.581,60.481c0-2.68-0.063-5.256,0.062-7.817
		c0.022-0.413,0.834-0.935,1.384-1.156c6.052-2.416,12.12-4.787,18.188-7.173c0.361-0.143,0.713-0.306,1.354-0.581
		c-2.863-1.123-5.479-2.161-8.104-3.178c-3.874-1.503-7.752-3.018-11.645-4.463c-0.938-0.347-1.307-0.822-1.267-1.84
		c0.072-2.3,0.02-4.606,0.02-7.156c0.731,0.276,1.295,0.464,1.842,0.7c9.086,3.911,18.162,7.841,27.258,11.722
		c0.961,0.412,1.401,0.893,1.338,1.981c-0.097,1.627,0.034,3.267-0.064,4.894c-0.032,0.486-0.412,1.196-0.821,1.376
		c-9.561,4.222-19.153,8.379-28.741,12.545C48.195,60.415,47.967,60.413,47.581,60.481z"/>
	<path fill-rule="evenodd" clip-rule="evenodd" fill="#11DAE2" d="M31.369,66.384c-2.39,0.01-3.474-1.269-2.909-3.757
		c1.608-7.067,3.294-14.116,4.986-21.165c1.429-5.961,2.863-11.914,4.378-17.851c0.639-2.501,1.852-3.293,3.932-2.899
		c1.827,0.346,2.705,1.622,2.259,3.641c-0.912,4.114-1.928,8.206-2.921,12.3c-2.144,8.849-4.28,17.7-6.463,26.539
		C34.015,65.677,33.214,66.374,31.369,66.384z"/>
</g>
</svg>
