<?xml version="1.0" encoding="utf-8"?>
<!-- Generator: Adobe Illustrator 16.0.0, SVG Export Plug-In . SVG Version: 6.00 Build 0)  -->
<!DOCTYPE svg PUBLIC "-//W3C//DTD SVG 1.1//EN" "http://www.w3.org/Graphics/SVG/1.1/DTD/svg11.dtd">
<svg version="1.1" id="Layer_1" xmlns="http://www.w3.org/2000/svg" xmlns:xlink="http://www.w3.org/1999/xlink" x="0px" y="0px"
	 width="70px" height="60px" viewBox="0 0 70 60" enable-background="new 0 0 70 60" xml:space="preserve">
<path fill="#FFFFFF" d="M67.543,5.207c-0.711-3.32-3.51-4.195-6.979-4.199C52.05,0.997,35.023,1.001,35.023,1
	C26.663,1,8.71,1,8.114,1.105C4.631,1.724,2.335,3.168,2.3,6.846C2.276,9.487,2.29,36.564,2.299,46.104
	c0.004,3.938,2.699,5.49,6.512,5.818H60.63v0.025c4.173-0.104,7.08-1.709,7.083-5.926C67.719,33.951,67.674,5.82,67.543,5.207z
	 M64.579,46.086c-0.001,1.795-0.987,2.744-2.837,2.744c-14.736,0.003-51.292,0.009-53.474,0.003
	c-1.869-0.003-2.841-0.962-2.842-2.813c-0.002-12.117-0.002-26.949,0-39.063c0-1.897,0.959-2.836,2.875-2.836
	c8.449-0.002,44.961,0,53.411,0.001c1.922,0,2.867,0.919,2.869,2.835C64.585,19.093,64.585,33.947,64.579,46.086z"/>
<path fill="#FFFFFF" d="M23.798,56.115c0,0.677,0.698,1.229,1.559,1.229h19.286c0.861,0,1.561-0.552,1.561-1.229l0,0
	c0-0.68-0.697-1.229-1.561-1.229H25.357C24.497,54.889,23.798,55.438,23.798,56.115L23.798,56.115z"/>
<path fill="#FFFFFF" d="M55.397,26.045c-0.182-1.488-1.009-2.583-2.394-3.166c-1.051-0.444-2.172-0.402-3.236,0.114L38.97,11.766
	c0.007-0.279-0.034-0.54-0.078-0.765c-0.357-1.831-1.966-3.159-3.827-3.159c-0.553,0-1.099,0.116-1.62,0.345
	c-1.517,0.667-2.434,2.243-2.293,3.892c-3.23,1.389-6.46,2.778-9.688,4.169c-0.746-0.84-1.796-1.318-2.915-1.318
	c-0.56,0-1.122,0.125-1.625,0.359c-1.417,0.662-2.236,1.871-2.302,3.433c0.004,0.456,0.044,0.792,0.129,1.122
	c0.446,1.723,2.003,2.926,3.784,2.926c0.368,0,0.735-0.052,1.042-0.149c0.899,1.261,1.801,2.521,2.706,3.78
	c-0.907,1.276-1.812,2.554-2.717,3.835c-0.881-0.249-1.757-0.2-2.574,0.143c-1.726,0.723-2.673,2.453-2.359,4.307
	c0.306,1.795,1.835,3.151,3.638,3.226l0.192,0.004c1.144,0,2.113-0.417,2.888-1.239c0.043,0.018,0.087,0.035,0.132,0.054
	l9.637,3.954c-0.073,0.537-0.03,1.083,0.127,1.623c0.481,1.648,2.016,2.799,3.734,2.799c0.168,0,0.338-0.011,0.509-0.033
	c1.362-0.18,2.378-0.898,3.021-2.138c0.23-0.445,0.36-0.938,0.398-1.557c0.559-0.573,1.114-1.147,1.672-1.722l7.286-7.513
	c0.675-0.694,1.35-1.389,2.019-2.083c0.539,0.241,1.087,0.362,1.633,0.362c0.542,0,1.087-0.12,1.62-0.357
	C54.701,29.371,55.607,27.754,55.397,26.045z M34.965,9.528c1.168,0,2.23,1.029,2.247,2.177c0.016,1.179-0.995,2.189-2.198,2.197
	c-1.225,0.008-2.214-0.949-2.224-2.152C32.78,10.568,33.799,9.528,34.965,9.528z M32.429,14.67c0.724,0.651,1.634,1.004,2.619,1.004
	c0.001,0,0.001,0,0.001,0c1.523,0,2.86-0.849,3.515-2.174l9.016,9.381c0.332,0.346,0.664,0.692,0.995,1.034
	c-0.149,0.166-0.276,0.333-0.383,0.506c-1.343-0.448-2.686-0.891-4.029-1.335l-0.267-0.088c-1.697-0.561-3.394-1.122-5.09-1.678
	c-0.123-1.58-1.144-2.898-2.641-3.391c-0.422-0.139-0.854-0.209-1.283-0.209c-1.745,0-3.296,1.207-3.755,2.904
	c-0.833-0.198-1.668-0.395-2.501-0.59L32.429,14.67z M36.665,27.846c-0.509-0.236-1.043-0.356-1.587-0.356
	c-0.484,0-0.981,0.095-1.477,0.283c-0.525,0.199-0.999,0.526-1.411,0.97l-2.791-2.251l2.701-2.123
	c0.761,0.786,1.71,1.183,2.824,1.183l0.157-0.002c1.627-0.054,3.06-1.169,3.552-2.712l9.029,2.98
	c-0.096,0.531-0.079,1.066,0.047,1.596l-8.079,2.75l-0.786,0.281C38.543,29.25,37.813,28.377,36.665,27.846z M37.212,31.282
	c0.016,1.18-0.995,2.188-2.198,2.197c-1.225,0.008-2.214-0.949-2.224-2.152c-0.01-1.183,1.009-2.223,2.175-2.223
	C36.133,29.105,37.195,30.133,37.212,31.282z M26.995,26.475c-0.603,0.472-1.205,0.945-1.808,1.419
	c-0.356-0.5-0.713-0.999-1.071-1.497l1.014-1.428L26.995,26.475z M25.994,23.747l1.699-2.396l3.332,0.786
	c0.043,0.346,0.126,0.673,0.249,0.977l-3.073,2.414C27.466,24.933,26.731,24.339,25.994,23.747z M28.191,27.438
	c1.065,0.861,2.13,1.721,3.198,2.58c-0.076,0.202-0.135,0.413-0.176,0.632l-3.478,0.803l-1.676-2.341
	C26.772,28.556,27.482,27.997,28.191,27.438z M32.79,21.691c-0.01-1.182,1.009-2.222,2.175-2.222c1.168,0,2.23,1.029,2.247,2.177
	c0.016,1.179-0.995,2.189-2.198,2.197C33.789,23.851,32.799,22.894,32.79,21.691z M26.393,15.755
	c1.645-0.707,3.29-1.415,4.935-2.125l-1.58,2.228c-0.897,1.269-1.795,2.537-2.695,3.803l-4.609-1.085
	c-0.029-0.365-0.099-0.71-0.212-1.032L26.393,15.755z M22.265,20.068l3.855,0.912l-0.776,1.096
	c-0.172,0.242-0.344,0.484-0.517,0.729c-0.92-0.745-1.841-1.488-2.765-2.229C22.142,20.414,22.209,20.245,22.265,20.068z
	 M18.496,21.014c-1.225,0.008-2.214-0.949-2.224-2.152c-0.01-1.182,1.009-2.222,2.175-2.222c1.167,0,2.23,1.029,2.247,2.177
	C20.709,19.996,19.699,21.006,18.496,21.014z M20.937,21.955c0.076-0.059,0.151-0.121,0.223-0.187l2.802,2.259
	c-0.256,0.36-0.513,0.721-0.767,1.083L20.937,21.955z M18.572,36.156c-1.224,0.008-2.213-0.949-2.224-2.152
	c-0.009-1.183,1.009-2.223,2.176-2.223c1.167,0,2.229,1.029,2.246,2.178C20.786,35.139,19.775,36.147,18.572,36.156z M21.111,31.092
	c-0.065-0.061-0.131-0.117-0.198-0.17l1.767-2.495c0.174-0.246,0.348-0.491,0.521-0.737c0.269,0.377,0.538,0.753,0.81,1.128
	L21.111,31.092z M24.884,30.035l1.274,1.784l-2.164,0.501c-0.611,0.142-1.223,0.283-1.796,0.422
	c-0.05-0.156-0.112-0.309-0.183-0.454L24.884,30.035z M22.155,35.386c0.135-0.365,0.215-0.754,0.24-1.158l2.357-0.547
	c0.783-0.182,1.565-0.361,2.352-0.545l4.337,6.063L22.155,35.386z M35.014,43.419c-1.225,0.009-2.214-0.948-2.224-2.152
	c-0.01-1.182,1.009-2.222,2.175-2.222c1.168,0.001,2.23,1.029,2.247,2.177C37.228,42.4,36.217,43.412,35.014,43.419z M38.573,39.577
	c-0.349-0.79-0.923-1.406-1.713-1.834c-0.581-0.314-1.197-0.474-1.829-0.474c-0.488,0-0.99,0.096-1.493,0.284
	c-0.37,0.138-0.709,0.338-1.013,0.596c-1.273-1.781-2.55-3.565-3.847-5.379l2.534-0.594c0.157,0.82,0.55,1.527,1.174,2.107
	c0.603,0.563,1.323,0.901,2.14,1.008c1.12,0.142,2.125-0.137,2.987-0.829c0.789-0.635,1.263-1.469,1.409-2.48l9.395-3.215
	c0.101,0.145,0.212,0.282,0.334,0.41L38.573,39.577z M51.555,28.661c-1.226,0.008-2.215-0.949-2.225-2.152
	c-0.01-1.182,1.01-2.222,2.175-2.222c1.168,0,2.23,1.029,2.247,2.177C53.769,27.643,52.758,28.653,51.555,28.661z"/>
</svg>
